<svg xmlns="http://www.w3.org/2000/svg" xmlns:xlink="http://www.w3.org/1999/xlink" width="41" height="40" xmlns:v="https://vecta.io/nano"><defs><path id="A" d="M.062.081h27.515v33.023H.062z"/><path id="B" d="M0 .04h9.384v9.415H0z"/></defs><g transform="translate(1.5 2.5)" fill="none" fill-rule="evenodd"><g transform="translate(8.379 .023)"><mask id="C" fill="#fff"><use xlink:href="#A"/></mask><path d="M13.808 31.652A12.32 12.32 0 0 1 1.49 19.335 12.32 12.32 0 0 1 13.806 7.018a12.32 12.32 0 0 1 12.318 12.315c-.007 6.8-5.517 12.31-12.316 12.319h0zM13.01 3.952h1.595v1.639c-.264-.015-.53-.025-.798-.025a14.13 14.13 0 0 0-.797.025V3.952zm-1.466-1.448h4.528v-.977h-4.528v.977zM.667 23.361c.279.921.64 1.817 1.107 2.66a13.77 13.77 0 0 0 16.74 6.25c7.144-2.599 10.829-10.497 8.23-17.641-1.699-4.672-5.786-8.064-10.69-8.875v-1.8h.742c.4 0 .724-.324.724-.724V.805c0-.4-.324-.724-.724-.724H10.82c-.4 0-.724.324-.724.724V3.23c0 .4.324.724.724.724h.742v1.8A13.81 13.81 0 0 0 .873 14.626l-.437 1.448c-.203.831-.328 1.68-.372 2.535l-.002 1.448.021.32c.075.985.274 1.957.56 2.903l.025.081z" fill="#4197d3" mask="url(#C)"/></g><path d="M30.655 20.08h.515a8.97 8.97 0 0 1-2.121 5.113l-.362-.362c-.283-.283-.741-.283-1.024 0s-.283.741 0 1.024l.362.362a8.98 8.98 0 0 1-5.113 2.122v-.516c0-.4-.324-.724-.724-.724s-.724.324-.724.724v.516a8.97 8.97 0 0 1-5.112-2.122l.362-.362c.283-.283.283-.741 0-1.024s-.741-.283-1.024 0l-.362.362a8.97 8.97 0 0 1-2.122-5.113h.516c.4 0 .724-.324.724-.724s-.324-.724-.724-.724h-.516a8.97 8.97 0 0 1 2.122-5.113l.362.362c.288.278.746.27 1.024-.018.271-.281.271-.725 0-1.006l-.362-.362a8.97 8.97 0 0 1 5.112-2.122v.516c0 .4.324.724.724.724s.724-.324.724-.724v-.516a8.97 8.97 0 0 1 5.113 2.122l-.362.362c-.283.283-.283.741 0 1.024s.741.283 1.024 0l.362-.362a8.97 8.97 0 0 1 2.122 5.112h-.515c-.4 0-.724.324-.724.724s.324.724.724.724h0zm-1.03-8.074c-.014-.016-.025-.033-.041-.048l-.049-.041c-4.07-4.033-10.629-4.033-14.698 0-.016.014-.034.025-.049.041s-.026.032-.039.048c-4.032 4.069-4.032 10.628 0 14.698.014.016.025.034.041.05s.034.027.05.041c4.069 4.031 10.627 4.031 14.696 0 .017-.014.034-.025.05-.041s.027-.034.041-.05c4.032-4.07 4.032-10.628 0-14.698h-.002zm-6.714 7.04v-4.934c0-.4-.324-.724-.724-.724s-.724.324-.724.724v5.244c0 .198.081.387.224.524l2.487 2.374c.29.276.748.265 1.024-.024s.265-.748-.024-1.024l-2.263-2.16z" fill="#4197d3"/><g transform="translate(0 14.609)"><mask id="D" fill="#fff"><use xlink:href="#B"/></mask><path d="M9.384.04H3.194c-.4 0-.724.324-.724.724s.324.724.724.724h5.754L9.384.04zm-.809 3.983H.724c-.4 0-.724.324-.724.724s.324.724.724.724h7.85l.002-1.448zm.371 3.983H3.194c-.4 0-.724.324-.724.724s.324.724.724.724h6.191l-.438-1.448z" fill="#eb9aa7" mask="url(#D)"/></g></g></svg>