<svg xmlns="http://www.w3.org/2000/svg" width="50" height="51" fill="none" xmlns:v="https://vecta.io/nano"><path d="M25 41.833a6.34 6.34 0 0 1 6.333 6.333H18.667A6.34 6.34 0 0 1 25 41.833zm-3.167-4.75A3.17 3.17 0 0 1 25 33.917a3.17 3.17 0 0 1 3.167 3.167A3.17 3.17 0 0 1 25 40.25a3.17 3.17 0 0 1-3.167-3.167zm-4.75 11.083v.792a.79.79 0 0 0 .792.792h14.25a.79.79 0 0 0 .792-.792v-.792c0-3.331-2.071-6.183-4.991-7.349a4.74 4.74 0 0 0 1.824-3.734c0-2.62-2.13-4.75-4.75-4.75s-4.75 2.13-4.75 4.75a4.74 4.74 0 0 0 1.824 3.734c-2.92 1.166-4.991 4.018-4.991 7.349zM25 3.833a8.72 8.72 0 0 1 8.668 7.917H29.75V7a.79.79 0 0 0-.792-.792h-7.917A.79.79 0 0 0 20.25 7v4.75h-3.918A8.72 8.72 0 0 1 25 3.833zm4.75 15.998v-6.498h3.918c-.246 2.719-1.746 5.078-3.918 6.498zm-5.542 1.378v-.751h1.583v.751l-.792.04a8.7 8.7 0 0 1-.792-.04zm3.958-.564a8.62 8.62 0 0 1-.792.268v-1.246a.79.79 0 0 0-.792-.792h-3.167a.79.79 0 0 0-.792.792v1.246a8.62 8.62 0 0 1-.792-.268V7.792h6.333v12.854zm-11.835-7.312h3.918v6.498c-2.172-1.42-3.672-3.779-3.918-6.498zm8.668 9.5c5.675 0 10.292-4.617 10.292-10.292S30.675 2.25 25 2.25 14.708 6.867 14.708 12.542 19.325 22.833 25 22.833zm-15.041-.791c3.928 0 7.125 3.197 7.125 7.125s-3.197 7.125-7.125 7.125-7.125-3.197-7.125-7.125 3.197-7.125 7.125-7.125zm0 15.833a8.72 8.72 0 0 0 8.708-8.708 8.72 8.72 0 0 0-8.708-8.708 8.72 8.72 0 0 0-8.708 8.708 8.72 8.72 0 0 0 8.708 8.708zm22.959-8.708c0-3.928 3.197-7.125 7.125-7.125s7.125 3.197 7.125 7.125-3.197 7.125-7.125 7.125-7.125-3.197-7.125-7.125zm15.833 0a8.72 8.72 0 0 0-8.708-8.708 8.72 8.72 0 0 0-8.708 8.708 8.72 8.72 0 0 0 8.708 8.708 8.72 8.72 0 0 0 8.708-8.708zM38.679 18.384a17.62 17.62 0 0 0-2.067-2.199l-1.056 1.18a16.05 16.05 0 0 1 1.88 2.001l1.243-.981zm-27.779.555l1.281.931a15.93 15.93 0 0 1 2.563-2.767l-1.026-1.206a17.52 17.52 0 0 0-2.818 3.042zm1.282 19.524l-1.281.931a17.41 17.41 0 0 0 5.123 4.701l.817-1.357a15.82 15.82 0 0 1-4.659-4.275zm26.916.93l-1.28-.931a15.82 15.82 0 0 1-4.66 4.276l.817 1.356a17.38 17.38 0 0 0 5.123-4.701z" fill-rule="evenodd" fill="#4197d3"/><mask id="A" maskUnits="userSpaceOnUse" x="1" y="2" width="48" height="48" mask-type="alpha"><path fill-rule="evenodd" d="M1.25 49.75h47.5V2.25H1.25v47.5z" fill="#fff"/></mask><g mask="url(#A)"><path fill-rule="evenodd" d="M22.625 10.958h1.583V9.375h-1.583v1.583zm3.167 0h1.583V9.375h-1.583v1.583zm-3.167 3.167h1.583v-1.583h-1.583v1.583zm3.167 0h1.583v-1.583h-1.583v1.583zm-3.167 3.167h1.583v-1.583h-1.583v1.583zm3.167 0h1.583v-1.583h-1.583v1.583zm-7.917-.792h1.583v-1.583h-1.583V16.5zm12.667 0h1.583v-1.583h-1.583V16.5zM9.021 31.979a1.33 1.33 0 0 1-1.875 0 1.33 1.33 0 0 1 0-1.875 1.33 1.33 0 0 1 1.875 0 1.33 1.33 0 0 1 0 1.875zm2.343-7.032l.938.938-.469.469-.937-.938-.937.938.937.937-1.473 1.473c-1.016-.596-2.344-.469-3.215.402-1.034 1.034-1.034 2.716 0 3.75s2.716 1.034 3.75 0c.871-.871.999-2.199.402-3.214l3.817-3.817-1.875-1.875-.938.937zm25.763 5.378v-1.359h2.114c.502 0 .96-.266 1.214-.684h-3.328v-1.475h3.328c-.254-.418-.712-.684-1.214-.684h-2.114v-1.475h5.829v1.475h-1.192a2.88 2.88 0 0 1 .279.684h.914v1.475h-.914a2.91 2.91 0 0 1-2.715 2.158l2.203 2.203-1.043 1.043-3.361-3.361z" fill="#eb9aa7"/></g></svg>