<svg width="49" height="42" viewBox="0 0 49 42" fill="none" xmlns="http://www.w3.org/2000/svg">
<g id="Group 19">
<g id="Group 18">
<path id="Fill 1" fill-rule="evenodd" clip-rule="evenodd" d="M39.0619 25.9805C39.3561 25.9805 39.5985 26.2147 39.5985 26.5041C39.5985 26.7936 39.3561 27.0297 39.0619 27.0297H37.6599L37.683 27.0601C37.8984 27.3496 38.0503 27.6828 38.1292 28.0389H39.0619C39.335 28.0389 39.5619 28.2407 39.5927 28.5016L39.5985 28.5625C39.5985 28.852 39.3561 29.0881 39.0619 29.0881L38.1311 29.0862L38.1099 29.1738C37.8368 30.2858 36.8368 31.1122 35.6444 31.1675L35.5194 31.1694H35.4502L38.0195 33.5401C38.2157 33.7267 38.2388 34.0199 38.0811 34.2313L38.0368 34.2827C37.8349 34.4922 37.4964 34.5036 37.283 34.3056L33.7309 31.0247C33.6308 30.9275 33.5693 30.7923 33.5693 30.6571C33.5635 30.3639 33.8039 30.1259 34.1059 30.1202H35.5213C36.1906 30.1183 36.7733 29.7108 37.006 29.1262L37.0195 29.0862L34.102 29.0881C33.8289 29.0881 33.602 28.8843 33.5712 28.6235L33.5674 28.5625C33.5674 28.275 33.8078 28.0389 34.102 28.0389H37.0176L37.006 28.0084C36.7849 27.4657 36.2483 27.0697 35.6213 27.0316L35.5233 27.0297H34.102C33.8078 27.0297 33.5674 26.7936 33.5674 26.5041C33.5674 26.2147 33.8078 25.9805 34.102 25.9805H39.0619Z" fill="#EB9AA7"/>
<path id="Fill 3" fill-rule="evenodd" clip-rule="evenodd" d="M14.8861 7.55469C15.1804 7.55469 15.4227 7.7889 15.4227 8.07834C15.4227 8.36777 15.1804 8.60389 14.8861 8.60389H13.4841L13.5072 8.63436C13.7226 8.9238 13.8745 9.25703 13.9534 9.61311H14.8861C15.1592 9.61311 15.3861 9.81495 15.4169 10.0758L15.4227 10.1368C15.4227 10.4262 15.1804 10.6623 14.8861 10.6623L13.9553 10.6604L13.9341 10.748C13.6611 11.86 12.661 12.6865 11.4686 12.7417L11.3436 12.7436H11.2744L13.8438 15.1143C14.0399 15.3009 14.063 15.5941 13.9053 15.8055L13.8611 15.8569C13.6591 16.0664 13.3207 16.0778 13.1072 15.8798L9.55507 12.5989C9.45507 12.5018 9.39352 12.3666 9.39352 12.2314C9.38776 11.9381 9.62815 11.7001 9.93009 11.6944H11.3455C12.0148 11.6925 12.5975 11.285 12.8302 10.7004L12.8437 10.6604L9.92624 10.6623C9.65315 10.6623 9.42622 10.4586 9.39545 10.1977L9.3916 10.1368C9.3916 9.84923 9.632 9.61311 9.92624 9.61311H12.8418L12.8302 9.58264C12.6091 9.03995 12.0725 8.64388 11.4456 8.6058L11.3475 8.60389H9.92624C9.632 8.60389 9.3916 8.36777 9.3916 8.07834C9.3916 7.7889 9.632 7.55469 9.92624 7.55469H14.8861Z" fill="#EB9AA7"/>
<g id="Group 7">
<mask id="mask0_1777_2690" style="mask-type:luminance" maskUnits="userSpaceOnUse" x="24" y="18" width="25" height="24">
<path id="Clip 6" fill-rule="evenodd" clip-rule="evenodd" d="M24.6914 18.4258H48.4996V41.9996H24.6914V18.4258Z" fill="white"/>
</mask>
<g mask="url(#mask0_1777_2690)">
<path id="Fill 5" fill-rule="evenodd" clip-rule="evenodd" d="M36.5959 19.8881C30.8456 19.8881 26.1684 24.521 26.1684 30.2126C26.1684 35.9061 30.8456 40.539 36.5959 40.539C42.3385 40.5314 47.0176 35.9004 47.0233 30.2126C47.0233 24.521 42.3462 19.8881 36.5959 19.8881ZM36.5959 41.9996C30.0321 41.9996 24.6914 36.7117 24.6914 30.2127C24.6914 23.7137 30.0321 18.4258 36.5959 18.4258C43.152 18.4334 48.4926 23.7213 48.5003 30.2127C48.5003 36.7117 43.1597 41.9996 36.5959 41.9996Z" fill="#4197D3"/>
</g>
</g>
<path id="Fill 8" fill-rule="evenodd" clip-rule="evenodd" d="M12.4025 1.4624C6.65993 1.46812 1.98277 6.10099 1.97507 11.7869C1.97507 17.4804 6.65224 22.1133 12.4025 22.1133C18.1528 22.1133 22.83 17.4804 22.83 11.7869C22.83 6.09528 18.1528 1.4624 12.4025 1.4624ZM12.4025 23.5738C5.84643 23.5662 0.50577 18.2783 0.5 11.7869C0.5 5.28792 5.83874 0 12.4025 0C18.9663 0 24.307 5.28792 24.307 11.7869C24.307 18.2859 18.9663 23.5738 12.4025 23.5738Z" fill="#4197D3"/>
<path id="Fill 10" fill-rule="evenodd" clip-rule="evenodd" d="M12.2856 5.19845C10.7817 5.19845 9.36817 5.69164 8.2008 6.62278C6.89496 7.66437 6.0103 9.20295 5.77182 10.8444C5.43527 13.1675 6.37955 15.5172 8.23349 16.9796C9.34701 17.8575 10.7509 18.3221 12.2952 18.3221C13.0587 18.3221 13.828 18.2078 14.5838 17.9812C15.582 17.6842 16.4185 17.1948 17.1397 16.4826C18.3975 15.2411 19.1167 13.5293 19.1129 11.7869C19.1129 11.4442 19.086 11.1033 19.0321 10.7644C18.5302 7.59201 15.6281 5.19845 12.2856 5.19845ZM12.4068 19.8892C7.90078 19.8835 4.23136 16.2503 4.22559 11.7869C4.22559 7.32161 7.89501 3.68652 12.4068 3.68652C16.9186 3.68652 20.588 7.32161 20.588 11.7869C20.588 16.2541 16.9186 19.8892 12.4068 19.8892Z" fill="#4197D3"/>
<path id="Fill 12" fill-rule="evenodd" clip-rule="evenodd" d="M36.4623 23.6243C34.9565 23.6243 33.543 24.1175 32.3756 25.0505C31.0698 26.0902 30.1851 27.6307 29.9466 29.2702C29.6101 31.5933 30.5543 33.943 32.4083 35.4055C33.5218 36.2833 34.9277 36.7479 36.472 36.7479C37.2355 36.7479 38.0047 36.6337 38.7586 36.409C39.7568 36.1119 40.5933 35.6206 41.3145 34.9085C42.5723 33.6669 43.2916 31.9551 43.2877 30.2128C43.2877 29.87 43.2608 29.5292 43.2069 29.1902C42.705 26.0178 39.8048 23.6243 36.4623 23.6243ZM36.5816 38.315C32.0756 38.3093 28.4062 34.6761 28.4004 30.2127C28.4004 25.7474 32.0717 22.1123 36.5816 22.1123C41.0934 22.1123 44.7647 25.7474 44.7647 30.2127C44.7647 34.6799 41.0934 38.315 36.5816 38.315Z" fill="#4197D3"/>
<path id="Fill 14" fill-rule="evenodd" clip-rule="evenodd" d="M8.91169 31.5481C8.46358 32.1783 7.91548 32.7191 7.28275 33.159L7.05967 33.3151L7.28275 33.4713C7.91548 33.913 8.46551 34.4557 8.91169 35.0841L9.06939 35.305L9.22709 35.0841C9.67134 34.4576 10.2175 33.915 10.8541 33.4713L11.0772 33.3151L10.8541 33.1609C10.2194 32.7172 9.67326 32.1764 9.22516 31.5481L9.06939 31.3272L8.91169 31.5481ZM9.06939 37.7366C8.75014 37.7366 8.46935 37.5347 8.36935 37.232C7.85586 35.722 6.63849 34.5185 5.11341 34.0101C4.89032 33.9358 4.71339 33.7626 4.64223 33.5436C4.58069 33.3589 4.59415 33.1589 4.68454 32.9856C4.77301 32.8124 4.92494 32.681 5.11149 32.62C6.63849 32.1116 7.85586 30.9082 8.36743 29.3982C8.44243 29.1773 8.61744 29.004 8.8386 28.9316C8.91361 28.9069 8.99246 28.8936 9.07131 28.8936C9.39056 28.8936 9.67134 29.0954 9.77135 29.3982C10.2848 30.9082 11.5022 32.1116 13.0273 32.62C13.2504 32.6924 13.4254 32.8657 13.4985 33.0866C13.6254 33.4693 13.4138 33.8844 13.0273 34.0082C11.5003 34.5185 10.2848 35.722 9.77135 37.232C9.69827 37.4529 9.52326 37.6261 9.30017 37.6985C9.22516 37.7233 9.14824 37.7366 9.06939 37.7366Z" fill="#EB9AA7"/>
<path id="Fill 16" fill-rule="evenodd" clip-rule="evenodd" d="M36.439 8.1759C35.9929 8.80428 35.4428 9.34697 34.8101 9.78874L34.587 9.94488L34.8101 10.101C35.4428 10.5409 35.9909 11.0836 36.439 11.712L36.5967 11.9348L36.7544 11.712C37.1987 11.0836 37.7468 10.5428 38.3814 10.0991L38.6045 9.94488L38.3814 9.78874C37.7449 9.34507 37.1987 8.80237 36.7544 8.1759L36.5967 7.95501L36.439 8.1759ZM36.5967 14.3645C36.2775 14.3645 35.9967 14.1627 35.8967 13.8618C35.3832 12.3499 34.1658 11.1464 32.6408 10.638C32.4177 10.5657 32.2407 10.3924 32.1696 10.1715C32.108 9.98679 32.1215 9.78876 32.2119 9.61357C32.3004 9.44029 32.4523 9.31081 32.6388 9.24988C34.1658 8.74146 35.3832 7.53611 35.8948 6.02609C35.9698 5.80521 36.1448 5.63193 36.3659 5.55766C36.441 5.53481 36.5198 5.52148 36.5987 5.52148C36.9179 5.52148 37.1987 5.72333 37.2987 6.02609C37.8122 7.53801 39.0295 8.74146 40.5546 9.24797C40.7777 9.32223 40.9527 9.49552 41.0258 9.7164C41.0873 9.90111 41.072 10.0991 40.9835 10.2724C40.895 10.4476 40.7431 10.5771 40.5566 10.6361C39.0295 11.1445 37.8122 12.3499 37.2987 13.8599C37.2256 14.0808 37.0506 14.2541 36.8275 14.3283C36.7525 14.3531 36.6756 14.3645 36.5967 14.3645Z" fill="#EB9AA7"/>
</g>
</g>
</svg>
