<svg xmlns="http://www.w3.org/2000/svg" width="50" height="50" fill="none" xmlns:v="https://vecta.io/nano"><style><![CDATA[.B{fill-rule:evenodd}.C{stroke:#4197d3}.D{stroke-width:.7}.E{fill:#eb9aa7}]]></style><mask id="A" maskUnits="userSpaceOnUse" x="1" y="1" width="48" height="48" mask-type="alpha"><path d="M1.25 1.25h47.497v47.5H1.25V1.25z" fill="#fff" class="B"/></mask><g mask="url(#A)" class="B"><path d="M33.81 11.917c0 2.599-1.133 5.027-3.079 6.692-1.113-2.077-3.318-3.444-5.733-3.444s-4.619 1.368-5.732 3.444c-1.945-1.664-3.079-4.093-3.079-6.691 0-2.276.865-4.437 2.437-6.083a8.74 8.74 0 0 1 6.375-2.728c4.858 0 8.811 3.953 8.811 8.811zm-13.001 7.751c.759-1.588 2.393-2.649 4.19-2.649s3.431 1.06 4.19 2.649a8.77 8.77 0 0 1-8.38 0zm-8.892 9.604c2.431 0 4.694.969 6.373 2.727a8.78 8.78 0 0 1 2.438 6.084c0 2.599-1.134 5.027-3.079 6.692-1.113-2.077-3.318-3.444-5.732-3.444s-4.619 1.368-5.732 3.444c-1.945-1.664-3.079-4.093-3.079-6.692 0-4.858 3.953-8.811 8.811-8.811zm34.975 8.811c0 2.599-1.133 5.027-3.079 6.692-1.113-2.077-3.318-3.444-5.732-3.444s-4.619 1.368-5.733 3.444c-1.945-1.664-3.079-4.093-3.079-6.692 0-2.276.865-4.437 2.437-6.083a8.74 8.74 0 0 1 6.375-2.728c4.858 0 8.811 3.953 8.811 8.811h0zM33.89 45.835c.759-1.588 2.393-2.649 4.19-2.649s3.431 1.06 4.19 2.649c-1.281.695-2.715 1.06-4.19 1.06s-2.909-.365-4.19-1.06zm-26.164 0c.759-1.588 2.393-2.649 4.19-2.649s3.431 1.06 4.19 2.649c-1.281.695-2.715 1.06-4.19 1.06s-2.909-.365-4.19-1.06zm16.344-23.29v5.223l-4.931 2.466a10.56 10.56 0 0 0-7.222-2.817c-5.882 0-10.667 4.785-10.667 10.667A10.67 10.67 0 0 0 11.917 48.75c5.841 0 10.667-4.723 10.667-10.667 0-2.34-.756-4.579-2.149-6.422l4.564-2.282 4.564 2.282c-1.393 1.843-2.149 4.082-2.149 6.422A10.67 10.67 0 0 0 38.08 48.75c5.841 0 10.667-4.723 10.667-10.667 0-5.882-4.785-10.667-10.667-10.667a10.56 10.56 0 0 0-7.222 2.817l-4.932-2.466v-5.223-.001c5.412-.468 9.732-4.993 9.739-10.614.007-5.908-4.759-10.68-10.667-10.68l-.19.002c-2.936.051-5.711 1.359-7.684 3.534l-.003.003c-1.6 1.763-2.599 4.003-2.764 6.378-.017.248-.026.498-.026.75a10.67 10.67 0 0 0 9.739 10.627v.001z" fill="#4197d3"/></g><path d="M7 44V32H17V44.5" class="C D"/><path d="M9 34.667h2.143V33H9v1.667zm3.857 0H15V33h-2.143v1.667zM9 37.533h2.143v-1.667H9v1.667zm3.857 0H15v-1.667h-2.143v1.667zM9 40.4h2.143v-1.667H9V40.4zm3.857 0H15v-1.667h-2.143V40.4z" class="B E"/><path d="M33 45V32H43V45" class="C D"/><path d="M35 34.667h2.143V33H35v1.667zm3.857 0H41V33h-2.143v1.667zM35 37.533h2.143v-1.667H35v1.667zm3.857 0H41v-1.667h-2.143v1.667zM35 40.4h2.143v-1.667H35V40.4zm3.857 0H41v-1.667h-2.143V40.4z" class="B E"/><path d="M20 18V6H30V18" class="C D"/><path d="M22 8.667h2.143V7H22v1.667zm3.857 0H28V7h-2.143v1.667zM22 11.533h2.143V9.867H22v1.667zm3.857 0H28V9.867h-2.143v1.667zM22 14.4h2.143v-1.667H22V14.4zm3.857 0H28v-1.667h-2.143V14.4z" class="B E"/></svg>