<svg width="55" height="56" viewBox="0 0 55 56" fill="none" xmlns="http://www.w3.org/2000/svg">
<path fill-rule="evenodd" clip-rule="evenodd" d="M27.4992 45.1799C31.2706 45.1799 34.3392 48.2485 34.3392 52.0199H20.6592C20.6592 48.2485 23.7278 45.1799 27.4992 45.1799ZM24.0792 40.0499C24.0792 38.1638 25.6131 36.6299 27.4992 36.6299C29.3854 36.6299 30.9192 38.1638 30.9192 40.0499C30.9192 41.936 29.3854 43.4699 27.4992 43.4699C25.6131 43.4699 24.0792 41.936 24.0792 40.0499ZM18.9492 52.0199V52.8749C18.9492 53.3469 19.3323 53.7299 19.8042 53.7299H35.1942C35.6662 53.7299 36.0492 53.3469 36.0492 52.8749V52.0199C36.0492 48.4221 33.8125 45.3424 30.6593 44.083C31.8563 43.1425 32.6292 41.6864 32.6292 40.0499C32.6292 37.2207 30.3284 34.9199 27.4992 34.9199C24.67 34.9199 22.3692 37.2207 22.3692 40.0499C22.3692 41.6864 23.1421 43.1425 24.3391 44.083C21.1859 45.3424 18.9492 48.4221 18.9492 52.0199Z" fill="#4197D3"/>
<path fill-rule="evenodd" clip-rule="evenodd" d="M27.4998 4.13969C32.3972 4.13969 36.4277 7.9034 36.8612 12.6897H32.6298V7.55969C32.6298 7.08773 32.2467 6.70469 31.7748 6.70469H23.2248C22.7528 6.70469 22.3698 7.08773 22.3698 7.55969V12.6897H18.1384C18.5719 7.9034 22.6023 4.13969 27.4998 4.13969ZM32.6298 21.4175V14.3997H36.8612C36.5953 17.3366 34.975 19.8837 32.6298 21.4175ZM26.6448 22.9061V22.0947H28.3548V22.9061C28.0726 22.9317 27.7888 22.9497 27.4998 22.9497C27.2108 22.9497 26.9269 22.9317 26.6448 22.9061ZM30.9198 22.2965C30.641 22.406 30.3563 22.5026 30.0648 22.5855V21.2397C30.0648 20.7678 29.6817 20.3847 29.2098 20.3847H25.7898C25.3178 20.3847 24.9348 20.7678 24.9348 21.2397V22.5855C24.6432 22.5026 24.3585 22.406 24.0798 22.2965V8.41473H30.9198V22.2965ZM18.1384 14.3997H22.3698V21.4175C20.0245 19.8837 18.4043 17.3366 18.1384 14.3997ZM27.4998 24.6597C33.6284 24.6597 38.6148 19.6733 38.6148 13.5447C38.6148 7.41605 33.6284 2.42969 27.4998 2.42969C21.3711 2.42969 16.3848 7.41605 16.3848 13.5447C16.3848 19.6733 21.3711 24.6597 27.4998 24.6597Z" fill="#4197D3"/>
<path fill-rule="evenodd" clip-rule="evenodd" d="M11.2546 23.8047C15.4971 23.8047 18.9496 27.2572 18.9496 31.4997C18.9496 35.7422 15.4971 39.1947 11.2546 39.1947C7.0121 39.1947 3.55961 35.7422 3.55961 31.4997C3.55961 27.2572 7.0121 23.8047 11.2546 23.8047ZM11.2546 40.9047C16.4402 40.9047 20.6596 36.6853 20.6596 31.4997C20.6596 26.3142 16.4402 22.0947 11.2546 22.0947C6.06903 22.0947 1.84961 26.3142 1.84961 31.4997C1.84961 36.6853 6.06903 40.9047 11.2546 40.9047Z" fill="#4197D3"/>
<path fill-rule="evenodd" clip-rule="evenodd" d="M36.0498 31.4997C36.0498 27.2572 39.5023 23.8047 43.7448 23.8047C47.9873 23.8047 51.4398 27.2572 51.4398 31.4997C51.4398 35.7422 47.9873 39.1947 43.7448 39.1947C39.5023 39.1947 36.0498 35.7422 36.0498 31.4997ZM53.1498 31.4997C53.1498 26.3142 48.9304 22.0947 43.7448 22.0947C38.5593 22.0947 34.3398 26.3142 34.3398 31.4997C34.3398 36.6853 38.5593 40.9047 43.7448 40.9047C48.9304 40.9047 53.1498 36.6853 53.1498 31.4997Z" fill="#4197D3"/>
<path fill-rule="evenodd" clip-rule="evenodd" d="M42.2724 19.8547C41.5995 19.0031 40.8488 18.2037 40.04 17.4795L38.8994 18.7534C39.6347 19.4118 40.3179 20.1394 40.93 20.914L42.2724 19.8547Z" fill="#4197D3"/>
<path fill-rule="evenodd" clip-rule="evenodd" d="M12.2715 20.4539L13.6549 21.4593C14.4552 20.3581 15.3854 19.3535 16.4225 18.4711L15.3144 17.1689C14.1756 18.1377 13.1513 19.2432 12.2715 20.4539Z" fill="#4197D3"/>
<path fill-rule="evenodd" clip-rule="evenodd" d="M13.6568 41.54L12.2734 42.5455C13.7688 44.6035 15.6302 46.3109 17.8061 47.6225L18.6885 46.157C16.7092 44.9652 15.0163 43.4108 13.6568 41.54Z" fill="#4197D3"/>
<path fill-rule="evenodd" clip-rule="evenodd" d="M42.7256 42.5445L41.3431 41.5391C39.9828 43.4107 38.2907 44.9642 36.3105 46.1569L37.1929 47.6215C39.3689 46.3108 41.2311 44.6025 42.7256 42.5445Z" fill="#4197D3"/>
<mask id="mask0_1777_755" style="mask-type:luminance" maskUnits="userSpaceOnUse" x="1" y="2" width="53" height="52">
<path fill-rule="evenodd" clip-rule="evenodd" d="M1.84961 53.7297H53.1496V2.42969H1.84961V53.7297Z" fill="white"/>
</mask>
<g mask="url(#mask0_1777_755)">
<path fill-rule="evenodd" clip-rule="evenodd" d="M24.9346 11.835H26.6446V10.125H24.9346V11.835Z" fill="#EB9AA7"/>
<path fill-rule="evenodd" clip-rule="evenodd" d="M28.3545 11.835H30.0645V10.125H28.3545V11.835Z" fill="#EB9AA7"/>
<path fill-rule="evenodd" clip-rule="evenodd" d="M24.9346 15.2549H26.6446V13.5449H24.9346V15.2549Z" fill="#EB9AA7"/>
<path fill-rule="evenodd" clip-rule="evenodd" d="M28.3545 15.2549H30.0645V13.5449H28.3545V15.2549Z" fill="#EB9AA7"/>
<path fill-rule="evenodd" clip-rule="evenodd" d="M24.9346 18.6748H26.6446V16.9648H24.9346V18.6748Z" fill="#EB9AA7"/>
<path fill-rule="evenodd" clip-rule="evenodd" d="M28.3545 18.6748H30.0645V16.9648H28.3545V18.6748Z" fill="#EB9AA7"/>
<path fill-rule="evenodd" clip-rule="evenodd" d="M19.8047 17.8194H21.5147V16.1094H19.8047V17.8194Z" fill="#EB9AA7"/>
<path fill-rule="evenodd" clip-rule="evenodd" d="M33.4844 17.8194H35.1944V16.1094H33.4844V17.8194Z" fill="#EB9AA7"/>
<path fill-rule="evenodd" clip-rule="evenodd" d="M10.2425 34.5371C9.68416 35.0954 8.77615 35.0954 8.21698 34.5371C7.65952 33.9788 7.65952 33.0708 8.21698 32.5116C8.77615 31.9542 9.68416 31.9542 10.2425 32.5116C10.8008 33.0708 10.8008 33.9788 10.2425 34.5371ZM12.7733 26.943L13.7864 27.9562L13.2794 28.4623L12.2671 27.4491L11.2548 28.4623L12.2671 29.4746L10.6768 31.0649C9.57985 30.4211 8.14516 30.5588 7.20466 31.4993C6.08803 32.6159 6.08803 34.4328 7.20466 35.5494C8.32129 36.666 10.1382 36.666 11.2548 35.5494C12.1953 34.6089 12.3338 33.1751 11.6891 32.0781L15.8111 27.9562L13.7864 25.9307L12.7733 26.943Z" fill="#EB9AA7"/>
<path fill-rule="evenodd" clip-rule="evenodd" d="M40.5967 32.7503V31.2823H42.8795C43.4216 31.2823 43.9166 30.995 44.1911 30.5436H40.5967V28.9507H44.1911C43.9166 28.4993 43.4216 28.212 42.8795 28.212H40.5967V26.6191H46.892V28.212H45.6044C45.7361 28.4446 45.8378 28.6942 45.9054 28.9507H46.892V30.5436H45.9054C45.5557 31.8748 44.3561 32.8324 42.9736 32.8743L45.353 35.2538L44.227 36.3798L40.5967 32.7503Z" fill="#EB9AA7"/>
</g>
<mask id="mask1_1777_755" style="mask-type:alpha" maskUnits="userSpaceOnUse" x="1" y="2" width="53" height="52">
<path fill-rule="evenodd" clip-rule="evenodd" d="M1.84961 53.7297H53.1496V2.42969H1.84961V53.7297Z" fill="white"/>
</mask>
<g mask="url(#mask1_1777_755)">
<path fill-rule="evenodd" clip-rule="evenodd" d="M24.9346 11.835H26.6446V10.125H24.9346V11.835Z" fill="#EB9AA7"/>
<path fill-rule="evenodd" clip-rule="evenodd" d="M28.3555 11.835H30.0655V10.125H28.3555V11.835Z" fill="#EB9AA7"/>
<path fill-rule="evenodd" clip-rule="evenodd" d="M24.9346 15.2549H26.6446V13.5449H24.9346V15.2549Z" fill="#EB9AA7"/>
<path fill-rule="evenodd" clip-rule="evenodd" d="M28.3555 15.2549H30.0655V13.5449H28.3555V15.2549Z" fill="#EB9AA7"/>
<path fill-rule="evenodd" clip-rule="evenodd" d="M24.9346 18.6748H26.6446V16.9648H24.9346V18.6748Z" fill="#EB9AA7"/>
<path fill-rule="evenodd" clip-rule="evenodd" d="M28.3555 18.6748H30.0655V16.9648H28.3555V18.6748Z" fill="#EB9AA7"/>
<path fill-rule="evenodd" clip-rule="evenodd" d="M19.8047 17.8204H21.5147V16.1104H19.8047V17.8204Z" fill="#EB9AA7"/>
<path fill-rule="evenodd" clip-rule="evenodd" d="M33.4854 17.8204H35.1954V16.1104H33.4854V17.8204Z" fill="#EB9AA7"/>
</g>
</svg>
