<svg xmlns="http://www.w3.org/2000/svg" width="50" height="51" fill="none" xmlns:v="https://vecta.io/nano"><style><![CDATA[.B{fill-rule:evenodd}.C{fill:#eb9aa7}]]></style><path d="M43.536 7.952c-.582-.626-.546-1.606.082-2.186a1.55 1.55 0 0 1 2.187.079c.583.626.546 1.606-.082 2.188s-1.604.546-2.186-.08zM5.408 43.567a1.87 1.87 0 0 1 .095-2.639 1.87 1.87 0 0 1 2.639.097c.702.755.658 1.937-.097 2.637a1.87 1.87 0 0 1-2.637-.095z" class="B C"/><mask id="A" maskUnits="userSpaceOnUse" x="1" y="38" width="3" height="2" mask-type="alpha"><path d="M1.613 38.193h1.776v1.777H1.613v-1.777z" fill="#fff" class="B"/></mask><g mask="url(#A)" class="B C"><path d="M1.851 39.688a.89.89 0 0 1 .045-1.257c.36-.334.922-.313 1.255.047a.89.89 0 0 1-.045 1.255.89.89 0 0 1-1.255-.045z"/></g><path d="M46.217 11.369a.9.9 0 1 1-1.802 0 .9.9 0 1 1 1.802 0z" class="B C"/><mask id="B" maskUnits="userSpaceOnUse" x="30" y="2" width="2" height="3" mask-type="alpha"><path d="M30.087 2.513h1.804v1.803h-1.804V2.513z" fill="#fff" class="B"/></mask><g mask="url(#B)" class="B C"><path d="M31.891 3.414c0 .497-.405.901-.903.901a.9.9 0 1 1 0-1.804c.498 0 .903.404.903.903z"/></g><mask id="C" maskUnits="userSpaceOnUse" x="3" y="3" width="44" height="46" mask-type="alpha"><path d="M3.917 3.43h43.059v44.894H3.917V3.43z" fill="#fff" class="B"/></mask><g mask="url(#C)" class="B"><path d="M19.006 42.024a3.68 3.68 0 0 1 2.569 1.043l2.77 2.679c.299.289.691.451 1.102.451a1.58 1.58 0 0 0 1.101-.451l2.77-2.679c.697-.673 1.61-1.043 2.572-1.043.175 0 .351.014.529.036l3.815.54a1.45 1.45 0 0 0 .228.017 1.58 1.58 0 0 0 1.554-1.311l.667-3.795c.2-1.137.895-2.099 1.914-2.637l3.405-1.807c.761-.404 1.058-1.323.679-2.097l-1.692-3.463a3.68 3.68 0 0 1 0-3.257l1.692-3.463c.38-.773.082-1.694-.679-2.096l-3.405-1.807a3.69 3.69 0 0 1-1.916-2.637l-.665-3.795a1.58 1.58 0 0 0-1.556-1.311c-.076 0-.151.005-.227.015l-3.816.54a3.66 3.66 0 0 1-.528.038 3.69 3.69 0 0 1-2.572-1.045l-2.77-2.679c-.298-.289-.689-.448-1.101-.448s-.803.159-1.102.449l-2.772 2.678a3.68 3.68 0 0 1-2.569 1.045 3.66 3.66 0 0 1-.528-.038l-3.818-.54c-.076-.011-.151-.015-.225-.015-.77 0-1.423.55-1.556 1.311l-.665 3.795c-.201 1.136-.9 2.097-1.916 2.637L6.889 18.69c-.759.402-1.058 1.323-.68 2.096l1.692 3.463a3.68 3.68 0 0 1 0 3.257L6.209 30.97a1.58 1.58 0 0 0 .68 2.096l3.407 1.807a3.69 3.69 0 0 1 1.916 2.637l.665 3.795c.131.759.786 1.311 1.556 1.311.071 0 .15-.005.227-.017l3.815-.54a4.17 4.17 0 0 1 .531-.036zm6.441 6.301a3.7 3.7 0 0 1-2.58-1.046l-2.77-2.681a1.57 1.57 0 0 0-1.099-.448c-.076 0-.148.005-.222.017l-3.821.538c-.177.027-.355.038-.531.038-1.798 0-3.328-1.291-3.641-3.069l-.667-3.797a1.57 1.57 0 0 0-.818-1.125l-3.404-1.807a3.7 3.7 0 0 1-1.597-4.908l1.697-3.461c.215-.443.215-.95 0-1.393l-1.697-3.463c-.882-1.809-.181-3.963 1.597-4.907l3.404-1.807c.435-.23.733-.64.818-1.125l.667-3.798c.313-1.778 1.842-3.068 3.64-3.068a3.53 3.53 0 0 1 .532.038l3.818.538a1.61 1.61 0 0 0 .224.017c.413 0 .803-.159 1.101-.446l2.77-2.681a3.69 3.69 0 0 1 2.578-1.049c.963 0 1.881.372 2.581 1.049l2.77 2.681c.296.286.685.445 1.098.445.074 0 .15-.005.227-.015l3.815-.54a3.74 3.74 0 0 1 .532-.038 3.7 3.7 0 0 1 3.643 3.07l.665 3.798c.086.484.384.895.818 1.125L45 16.812c1.778.944 2.478 3.1 1.594 4.907l-1.692 3.463c-.218.443-.218.95 0 1.393l1.692 3.461c.885 1.809.184 3.963-1.594 4.908l-3.405 1.807a1.58 1.58 0 0 0-.818 1.125l-.665 3.797a3.7 3.7 0 0 1-3.641 3.071 3.78 3.78 0 0 1-.534-.039l-3.815-.538c-.077-.012-.151-.017-.227-.017-.413 0-.801.159-1.098.448l-2.77 2.681c-.7.674-1.618 1.046-2.58 1.046z" fill="#4197d3"/></g><path d="M16.808 35.578a1.07 1.07 0 0 1-.753-.31c-.413-.414-.413-1.09.002-1.501l17.277-17.279c.201-.201.467-.311.752-.311a1.05 1.05 0 0 1 .75.311c.414.414.414 1.089 0 1.505L17.558 35.268c-.2.2-.466.31-.75.31zM20.21 16.47a2.43 2.43 0 0 0-2.427 2.427 2.43 2.43 0 0 0 2.427 2.428 2.43 2.43 0 0 0 2.428-2.428 2.43 2.43 0 0 0-2.428-2.427zm0 6.981a4.56 4.56 0 0 1-4.553-4.554 4.56 4.56 0 0 1 4.553-4.553 4.56 4.56 0 0 1 4.553 4.553 4.56 4.56 0 0 1-4.553 4.554zm10.472 6.979a2.43 2.43 0 0 0-2.427 2.428 2.43 2.43 0 0 0 2.427 2.428 2.43 2.43 0 0 0 2.428-2.428 2.43 2.43 0 0 0-2.428-2.428zm0 6.981a4.56 4.56 0 0 1-4.553-4.553 4.56 4.56 0 0 1 4.553-4.551c2.512 0 4.553 2.04 4.553 4.551a4.56 4.56 0 0 1-4.553 4.553z" fill="#4197d3" class="B"/></svg>