<svg xmlns="http://www.w3.org/2000/svg" width="50" height="51" fill="none" xmlns:v="https://vecta.io/nano"><mask id="A" maskUnits="userSpaceOnUse" x="0" y="16" width="23" height="34" mask-type="alpha"><path fill-rule="evenodd" d="M.806 16.518h21.351v33.429H.806V16.518z" fill="#fff"/></mask><g mask="url(#A)"><path fill-rule="evenodd" d="M20.53 49.947a1.05 1.05 0 0 1-1.048-1.046v-5.9a6.28 6.28 0 0 0-1.274-3.783l-4.184-5.5a1.24 1.24 0 0 0-.837-.482h-.059c-.403 0-.656.093-.868.262-.526.416-.622 1.19-.217 1.724l1.754 2.288a1.05 1.05 0 0 1-.192 1.467 1.03 1.03 0 0 1-.636.217 1.04 1.04 0 0 1-.831-.41l-3.931-5.119c-.549-.715-.853-1.605-.853-2.501v-9.355c0-.761-.618-1.382-1.38-1.382a1.38 1.38 0 0 0-1.376 1.252l-1.11 11.702a2.01 2.01 0 0 0 .401 1.408l9.022 11.748a1.06 1.06 0 0 1 .215.638v1.727c0 .577-.468 1.046-1.046 1.046a1.05 1.05 0 0 1-1.048-1.046v-1.454L2.223 36.059c-.625-.828-.917-1.849-.819-2.877L2.513 21.48c.172-1.794 1.658-3.147 3.461-3.147a3.48 3.48 0 0 1 3.475 3.475v9.355a2.03 2.03 0 0 0 .416 1.226l.297.386c.204-.351.473-.659.793-.915a3.29 3.29 0 0 1 2.07-.725 3.51 3.51 0 0 1 .419.024 3.31 3.31 0 0 1 2.244 1.29l4.185 5.5c1.097 1.443 1.704 3.237 1.704 5.05v5.9a1.05 1.05 0 0 1-1.048 1.046z" fill="#4197d3"/><path d="M20.53 49.947a1.05 1.05 0 0 1-1.048-1.046v-5.9a6.28 6.28 0 0 0-1.274-3.783l-4.184-5.5a1.24 1.24 0 0 0-.837-.482h-.059c-.403 0-.656.093-.868.262-.526.416-.622 1.19-.217 1.724l1.754 2.288a1.05 1.05 0 0 1-.192 1.467 1.03 1.03 0 0 1-.636.217 1.04 1.04 0 0 1-.831-.41l-3.931-5.119c-.549-.715-.853-1.605-.853-2.501v-9.355c0-.761-.618-1.382-1.38-1.382a1.38 1.38 0 0 0-1.376 1.252l-1.11 11.702a2.01 2.01 0 0 0 .401 1.408l9.022 11.748a1.06 1.06 0 0 1 .215.638v1.727c0 .577-.468 1.046-1.046 1.046a1.05 1.05 0 0 1-1.048-1.046v-1.454L2.223 36.059c-.625-.828-.917-1.849-.819-2.877L2.513 21.48c.172-1.794 1.658-3.147 3.461-3.147a3.48 3.48 0 0 1 3.475 3.475v9.355a2.03 2.03 0 0 0 .416 1.226l.297.386c.204-.351.473-.659.793-.915a3.29 3.29 0 0 1 2.07-.725 3.51 3.51 0 0 1 .419.024 3.31 3.31 0 0 1 2.244 1.29l4.185 5.5c1.097 1.443 1.704 3.237 1.704 5.05v5.9a1.05 1.05 0 0 1-1.048 1.046" stroke="#4197d3" stroke-width=".3"/></g><path fill-rule="evenodd" d="M37.92 49.947a1.05 1.05 0 0 1-1.048-1.046v-1.725c0-.23.076-.456.217-.638l9.025-11.754c.304-.4.445-.897.398-1.403L45.4 21.679c-.067-.714-.657-1.252-1.374-1.252-.763 0-1.382.621-1.382 1.382v9.355a4.14 4.14 0 0 1-.851 2.501l-3.931 5.121c-.198.259-.5.409-.831.409-.23 0-.45-.075-.635-.217a1.03 1.03 0 0 1-.401-.693c-.038-.279.037-.554.206-.775l1.756-2.288a1.25 1.25 0 0 0-.215-1.724c-.224-.177-.49-.27-.773-.27-.49.05-.789.221-.993.49l-4.186 5.5c-.822 1.081-1.274 2.424-1.274 3.783v5.9a1.05 1.05 0 0 1-1.046 1.046 1.05 1.05 0 0 1-1.049-1.046v-5.9a8.39 8.39 0 0 1 1.705-5.05l4.186-5.5c.546-.72 1.344-1.179 2.242-1.29a3.53 3.53 0 0 1 .419-.024 3.3 3.3 0 0 1 2.071.724c.325.259.59.567.793.915l.296-.386a2.02 2.02 0 0 0 .416-1.226v-9.355a3.48 3.48 0 0 1 3.476-3.475 3.46 3.46 0 0 1 3.459 3.147l1.109 11.702c.098 1.03-.192 2.049-.816 2.871l-8.862 11.542.052 1.306a1.05 1.05 0 0 1-1.048 1.046z" fill="#4197d3"/><path d="M37.92 49.947a1.05 1.05 0 0 1-1.048-1.046v-1.725c0-.23.076-.456.217-.638l9.025-11.754c.304-.4.445-.897.398-1.403L45.4 21.679c-.067-.714-.657-1.252-1.374-1.252-.763 0-1.382.621-1.382 1.382v9.355a4.14 4.14 0 0 1-.851 2.501l-3.931 5.121c-.198.259-.5.409-.831.409-.23 0-.45-.075-.635-.217a1.03 1.03 0 0 1-.401-.693c-.038-.279.037-.554.206-.775l1.756-2.288a1.25 1.25 0 0 0-.215-1.724c-.224-.177-.49-.27-.773-.27-.49.05-.789.221-.993.49l-4.186 5.5c-.822 1.081-1.274 2.424-1.274 3.783v5.9a1.05 1.05 0 0 1-1.046 1.046 1.05 1.05 0 0 1-1.049-1.046v-5.9a8.39 8.39 0 0 1 1.705-5.05l4.186-5.5c.546-.72 1.344-1.179 2.242-1.29a3.53 3.53 0 0 1 .419-.024 3.3 3.3 0 0 1 2.071.724c.325.259.59.567.793.915l.296-.386a2.02 2.02 0 0 0 .416-1.226v-9.355a3.48 3.48 0 0 1 3.476-3.475 3.46 3.46 0 0 1 3.459 3.147l1.109 11.702c.098 1.03-.192 2.049-.816 2.871l-8.862 11.542.052 1.306a1.05 1.05 0 0 1-1.048 1.046" stroke="#4197d3" stroke-width=".3"/><path fill-rule="evenodd" d="M14.381 8.133c-.039.415-.037.868-.037 1.306-.155 7.452-.331 15.887 10.661 19.74C35.95 25.32 35.863 16.956 35.786 9.573a21.08 21.08 0 0 1-.039-1.434v-.061l-.06-.002c-4.208-.147-7.669-1.408-10.584-3.855l-.04-.034-.039.034c-2.908 2.442-6.273 3.668-10.584 3.855l-.055.003-.005.053zm10.605 23.048c-.098 0-.198-.031-.303-.065C11.908 26.84 12.12 16.741 12.273 9.369c.037-.782.037-1.527.037-2.273 0-.54.456-.979 1.016-.979 4.586 0 8.074-1.271 10.973-3.998.192-.169.448-.263.708-.263s.515.094.708.263c2.9 2.729 6.384 3.998 10.971 3.998.561 0 1.018.439 1.018.979 0 .345.006.708.018 1.081l.019 1.189c.114 7.382.269 17.494-12.429 21.745-.118.037-.223.071-.326.071z" fill="#4197d2"/><path d="M14.381 8.133l.149.014h0l-.149-.014zm-.037 1.306l.15.003V9.44h-.15zm10.661 19.74l-.05.142.05.017.05-.017-.05-.142zM35.786 9.573l.15-.002v-.008l-.15.01zm-.039-1.495h.15v-.146l-.146-.004-.004.15zm-.06-.002l-.005.15h.001l.004-.15zM25.103 4.222l-.096.115h0l.096-.115zm-.04-.034l.097-.115-.099-.083-.097.085.099.113zm-.039.034l.096.115.002-.002-.099-.113zM14.441 8.077l-.007-.15h-.002l.009.15zm-.055.003l-.009-.15-.129.008-.012.129.149.014zm10.297 23.037l-.048.142h.002l.046-.143zM12.273 9.369l-.15-.007v.004l.15.003zm12.026-7.25l-.099-.113-.004.003.103.109zm1.416 0l.103-.109-.004-.004-.099.113zm12.007 6.058l.15-.004v-.001l-.15.005zm.019 1.189h-.15v.002l.15-.002zM25.312 31.111l.045.143.003-.001-.048-.142zM14.232 8.119c-.04.423-.038.884-.038 1.32h.3l.037-1.293-.299-.028zm-.038 1.317c-.077 3.72-.162 7.721 1.16 11.275 1.328 3.567 4.067 6.67 9.602 8.61l.099-.283c-5.457-1.913-8.126-4.955-9.42-8.431-1.299-3.491-1.219-7.432-1.141-11.164l-.3-.006zm10.861 19.885c5.511-1.943 8.26-5.029 9.614-8.57 1.349-3.528 1.305-7.494 1.267-11.179l-.3.003c.039 3.697.078 7.604-1.247 11.069-1.32 3.452-3.999 6.478-9.434 8.394l.1.283zM35.935 9.564c-.037-.579-.038-1.02-.038-1.424h-.3c0 .406.002.855.039 1.443l.299-.019zm-.038-1.424v-.061h-.3v.061h.3zm-.146-.211l-.06-.002-.008.3.06.002.008-.3zm-.058-.002c-4.178-.146-7.607-1.397-10.493-3.82l-.193.23c2.943 2.471 6.437 3.742 10.675 3.89l.01-.3zM25.2 4.107l-.04-.034-.193.23.04.034.193-.23zm-.236-.032l-.039.034.198.226.039-.034-.198-.226zm-.036.032c-2.879 2.418-6.211 3.634-10.494 3.82l.013.3c4.34-.188 7.737-1.424 10.674-3.89l-.193-.23zm-10.496 3.82l-.055.003.018.299.055-.003-.018-.299zm-.195.139l-.005.053.299.027.005-.053-.299-.027zm10.749 22.965c-.071 0-.149-.022-.257-.057l-.092.285c.102.033.224.072.349.072v-.3zm-.256-.057c-6.347-2.125-9.452-5.688-10.96-9.625-1.513-3.949-1.424-8.287-1.347-11.978l-.3-.006c-.076 3.681-.17 8.079 1.367 12.092 1.542 4.025 4.718 7.65 11.145 9.802l.095-.285zM12.423 9.376c.037-.786.037-1.535.037-2.28h-.3a47.06 47.06 0 0 1-.037 2.265l.3.014zm.037-2.28c0-.452.384-.829.866-.829v-.3c-.637 0-1.166.501-1.166 1.129h.3zm.866-.829c4.617 0 8.145-1.282 11.075-4.039l-.206-.218c-2.866 2.697-6.316 3.958-10.87 3.958v.3zm11.072-4.036c.163-.144.384-.225.609-.225v-.3c-.295 0-.587.106-.807.3l.198.225zm.609-.225c.226 0 .444.081.609.226l.198-.226c-.222-.194-.51-.3-.807-.3v.3zm.605.222c2.932 2.759 6.455 4.039 11.074 4.039v-.3c-4.555 0-8-1.259-10.868-3.958l-.206.218zm11.074 4.039c.484 0 .868.377.868.829h.3c0-.629-.529-1.129-1.168-1.129v.3zm.868.829c0 .347.006.711.018 1.085l.3-.009-.018-1.076h-.3zm.018 1.084l.019 1.185h.3a47.79 47.79 0 0 0-.019-1.192l-.3.007zm.019 1.187c.057 3.696.123 8.04-1.4 11.99-1.517 3.938-4.618 7.498-10.927 9.61l.095.284c6.39-2.139 9.561-5.761 11.112-9.787 1.546-4.014 1.477-8.416 1.42-12.103l-.3.005zm-12.324 21.6c-.124.039-.205.064-.281.064v.3c.131 0 .26-.043.371-.078l-.09-.286z" fill="#4197d3"/><path d="M14.1 4.623a.9.9 0 0 1-.898-.898.9.9 0 0 1 .898-.898c1.835 0 3.302-.358 4.36-1.063a.9.9 0 0 1 .676-.132.88.88 0 0 1 .571.381.89.89 0 0 1 .134.673.89.89 0 0 1-.384.573c-1.358.906-3.161 1.366-5.356 1.366zM28.378 12a.62.62 0 1 1 0 1.24H26.75l.028.036a3.06 3.06 0 0 1 .515 1.158h1.084a.62.62 0 0 1 .619.547l.003.072a.62.62 0 0 1-.622.62l-1.082-.001-.021.103c-.318 1.313-1.478 2.291-2.863 2.353l-.145.003h-.079l2.982 2.801a.62.62 0 0 1 .07.817l-.05.062c-.236.246-.628.259-.876.024l-4.123-3.873c-.117-.116-.187-.275-.187-.436-.006-.345.271-.627.622-.632h1.645a1.85 1.85 0 0 0 1.721-1.173l.017-.049-3.386.001a.62.62 0 0 1-.618-.546L22 15.05a.62.62 0 0 1 .622-.618h3.383l-.014-.036c-.254-.642-.878-1.109-1.605-1.155l-.116-.003h-1.647a.62.62 0 1 1 0-1.24h5.756z" fill-rule="evenodd" fill="#eb9aa7"/></svg>