<svg xmlns="http://www.w3.org/2000/svg" width="50" height="51" fill="none" xmlns:v="https://vecta.io/nano"><mask id="A" maskUnits="userSpaceOnUse" x="0" y="17" width="50" height="32" mask-type="alpha"><path fill-rule="evenodd" d="M.833 17.811h48.309v30.765H.833V17.811z" fill="#fff"/></mask><g mask="url(#A)"><path fill-rule="evenodd" d="M47.256 46.689h-9.351v-1.341c0-1.028-.213-2.017-.607-2.92a5.45 5.45 0 0 1 1.699-1.673 4.55 4.55 0 0 0 5.696 0c1.593.988 2.563 2.705 2.563 4.594v1.341h0zm-22.06-1.34c0-1.889.97-3.606 2.563-4.594a4.55 4.55 0 0 0 5.696 0c1.593.988 2.563 2.706 2.563 4.594v1.341H25.196v-1.341zm-11.238 0c0-1.889.97-3.606 2.563-4.594a4.55 4.55 0 0 0 2.848.999c1.076 0 2.066-.374 2.848-.998.683.425 1.261.994 1.699 1.673a7.29 7.29 0 0 0-.607 2.921v1.341h-9.351v-1.341h0zm-11.238 0c0-1.889.97-3.606 2.563-4.594a4.55 4.55 0 0 0 5.696 0c.684.425 1.262.994 1.699 1.672a7.29 7.29 0 0 0-.607 2.921v1.341H2.72v-1.341zm2.723-9.986a2.69 2.69 0 0 1 2.688-2.688 2.69 2.69 0 0 1 2.688 2.688v1.816a2.69 2.69 0 0 1-2.688 2.688 2.69 2.69 0 0 1-2.688-2.687v-1.816zm5.459-7.585a4.55 4.55 0 0 0 5.695 0c1.116.698 1.947 1.788 2.33 3.032a4.58 4.58 0 0 0-4.133 4.553v1.816c0 .761.188 1.478.518 2.11a7.33 7.33 0 0 0-1.566 1.407c-.449-.541-.973-1.014-1.558-1.406.33-.632.518-1.35.518-2.111v-1.816c0-2.373-1.817-4.33-4.133-4.553a5.51 5.51 0 0 1 2.329-3.032zm.16-5.392a2.69 2.69 0 0 1 2.688-2.688 2.69 2.69 0 0 1 2.688 2.688v1.816a2.69 2.69 0 0 1-2.688 2.688 2.69 2.69 0 0 1-2.688-2.688v-1.816zm5.619 14.792v-1.816a2.69 2.69 0 0 1 2.688-2.688 2.69 2.69 0 0 1 2.688 2.688v1.816a2.69 2.69 0 0 1-2.688 2.688 2.69 2.69 0 0 1-2.688-2.687zm5.459-9.4a4.55 4.55 0 0 0 5.695 0 5.44 5.44 0 0 1 1.701 1.675 7.28 7.28 0 0 0-.49 1.609c-1.756.639-3.014 2.325-3.014 4.3v1.816c0 .761.188 1.478.518 2.11-.595.397-1.121.872-1.566 1.408a7.31 7.31 0 0 0-1.558-1.407c.33-.632.518-1.35.518-2.111v-1.816c0-1.975-1.258-3.662-3.016-4.301-.102-.553-.269-1.089-.494-1.6a5.44 5.44 0 0 1 1.707-1.684zm.16-5.392a2.69 2.69 0 0 1 2.688-2.688 2.69 2.69 0 0 1 2.688 2.688v1.816a2.69 2.69 0 0 1-2.688 2.688 2.69 2.69 0 0 1-2.688-2.688v-1.816h0zm11.238 0a2.69 2.69 0 0 1 2.688-2.688 2.69 2.69 0 0 1 2.688 2.688v1.816a2.69 2.69 0 0 1-2.688 2.688 2.69 2.69 0 0 1-2.687-2.688v-1.816zm-5.619 14.792v-1.816a2.69 2.69 0 0 1 2.688-2.688 2.69 2.69 0 0 1 2.688 2.688v1.816a2.69 2.69 0 0 1-2.687 2.688 2.69 2.69 0 0 1-2.688-2.687zm13.484-6.369c-2.316.223-4.133 2.18-4.133 4.553v1.816a4.54 4.54 0 0 0 .519 2.111c-.585.393-1.109.866-1.558 1.408a7.33 7.33 0 0 0-1.567-1.409c.33-.632.518-1.349.518-2.11v-1.816c0-2.373-1.817-4.33-4.133-4.553a5.51 5.51 0 0 1 2.329-3.032 4.55 4.55 0 0 0 5.695 0c1.116.698 1.947 1.788 2.33 3.032zm3.129 4.553v1.816a2.69 2.69 0 0 1-2.687 2.688 2.69 2.69 0 0 1-2.688-2.687v-1.816a2.69 2.69 0 0 1 2.688-2.688 2.69 2.69 0 0 1 2.688 2.688zm1.369 3.926c.33-.632.518-1.349.518-2.11v-1.816c0-1.975-1.258-3.661-3.015-4.3-.354-1.948-1.477-3.652-3.122-4.751.33-.632.517-1.349.517-2.11v-1.816a4.58 4.58 0 0 0-4.575-4.575 4.58 4.58 0 0 0-4.575 4.575v1.816c0 .761.188 1.478.518 2.11a7.33 7.33 0 0 0-1.565 1.41 7.3 7.3 0 0 0-1.559-1.408c.33-.632.518-1.35.518-2.111v-1.816a4.58 4.58 0 0 0-4.575-4.575 4.58 4.58 0 0 0-4.575 4.575v1.816c0 .761.188 1.479.518 2.111-.589.395-1.116.872-1.567 1.418-.447-.541-.971-1.021-1.558-1.418.331-.632.519-1.35.519-2.112v-1.816a4.58 4.58 0 0 0-4.575-4.575 4.58 4.58 0 0 0-4.575 4.575v1.816c0 .761.188 1.478.517 2.11a7.27 7.27 0 0 0-3.122 4.751c-1.757.639-3.014 2.325-3.014 4.3v1.816c0 .761.188 1.478.518 2.11-2.02 1.349-3.241 3.595-3.241 6.06v2.284c0 .521.422.944.944.944h11.238 11.238 12.709 11.238c.521 0 .944-.422.944-.944v-2.284c0-2.464-1.222-4.711-3.241-6.06z" fill="#4197d3"/></g><path fill-rule="evenodd" d="M21.677 2.902a3.22 3.22 0 0 0-2.282.941c-.897.894-1.17 2.027-.811 3.367.498 1.861 2.044 3.568 2.921 4.42 1.406 1.365 2.774 2.194 3.481 2.403.707-.209 2.075-1.037 3.481-2.403.877-.852 2.423-2.558 2.921-4.42.359-1.341.086-2.473-.811-3.367a3.24 3.24 0 0 0-4.564 0c-.28.278-.642.431-1.021.431-.39 0-.752-.153-1.032-.431-.629-.627-1.456-.941-2.282-.941zm3.309 13.04h-.001c-.149 0-.299-.02-.443-.058-1.18-.315-2.852-1.422-4.363-2.889-1.018-.988-2.817-2.99-3.433-5.293-.532-1.988-.068-3.837 1.306-5.207 1.897-1.891 4.921-1.988 6.934-.29 2.012-1.697 5.037-1.6 6.934.291 1.374 1.369 1.838 3.219 1.306 5.207-.616 2.303-2.415 4.305-3.433 5.293-1.511 1.467-3.182 2.574-4.363 2.889-.144.039-.293.058-.443.058z" fill="#eb9aa7"/></svg>