<svg width="40" height="41" viewBox="0 0 40 41" fill="none" xmlns="http://www.w3.org/2000/svg">
<g id="Group 1010">
<g id="Group 4599">
<path id="Vector" fill-rule="evenodd" clip-rule="evenodd" d="M35.8691 31.6466C35.8691 35.1598 33.0211 38.0078 29.5079 38.0078C25.9948 38.0078 23.1468 35.1598 23.1468 31.6466C23.1468 28.1334 25.9948 25.2854 29.5079 25.2854C30.8544 25.2854 32.1031 25.7038 33.1312 26.4175L34.6487 24.8999C33.2224 23.8115 31.4407 23.165 29.5079 23.165C24.8237 23.165 21.0264 26.9623 21.0264 31.6466C21.0264 36.3308 24.8237 40.1281 29.5079 40.1281C34.1922 40.1281 37.9895 36.3308 37.9895 31.6466C37.9895 30.4426 37.7386 29.2972 37.2862 28.2598L35.6306 29.9154C35.786 30.4657 35.8691 31.0465 35.8691 31.6466Z" fill="#4197D3"/>
<path id="Vector_2" d="M27.3877 30.0559L30.0382 32.7063L37.9896 24.7549" stroke="#EB9AA7" stroke-width="2.12039" stroke-linecap="round" stroke-linejoin="round"/>
<path id="Fill 8" fill-rule="evenodd" clip-rule="evenodd" d="M20.3293 16.79C20.8075 16.79 21.2006 17.1624 21.2006 17.6261C21.2006 18.0854 20.8075 18.4599 20.3293 18.4599H18.0489L18.088 18.5089C18.4374 18.9704 18.6857 19.5011 18.8121 20.0673H20.3293C20.773 20.0673 21.1431 20.3906 21.1937 20.8053L21.2006 20.9012C21.2006 21.3627 20.8075 21.7372 20.3293 21.7372L18.8144 21.735L18.7822 21.8732C18.3386 23.6434 16.7133 24.961 14.7754 25.0457L14.5731 25.0502H14.4605L18.6374 28.8246C18.9501 29.1212 18.9914 29.5893 18.734 29.926L18.6627 30.0085C18.334 30.3407 17.7869 30.3563 17.4351 30.0419L11.6628 24.8228C11.5019 24.6667 11.4007 24.4505 11.4007 24.2342C11.3938 23.7682 11.7823 23.3892 12.272 23.3803H14.5754C15.665 23.3781 16.6099 22.7293 16.9869 21.7996L17.0099 21.735L12.2697 21.7372C11.8237 21.7372 11.4536 21.4139 11.403 20.9993L11.3984 20.9012C11.3984 20.4419 11.7892 20.0673 12.2697 20.0673H17.0053L16.9869 20.0205C16.6305 19.1533 15.757 18.5246 14.7386 18.4644L14.5777 18.4599H12.2697C11.7892 18.4599 11.3984 18.0854 11.3984 17.6261C11.3984 17.1624 11.7892 16.79 12.2697 16.79H20.3293Z" fill="#EB9AA7"/>
<path id="Subtract" fill-rule="evenodd" clip-rule="evenodd" d="M19.3496 8.99895L13.2714 9.08104L9.39423 3.27964C10.1884 2.63822 10.9596 2.34997 11.8759 2.34997C12.9354 2.34997 14.1342 2.71076 15.7225 3.29491C16.0795 3.42091 16.4575 3.48581 16.8431 3.48581C17.7892 3.48581 18.6799 3.11609 19.466 2.78985L19.4679 2.78903L19.4704 2.788C20.235 2.46958 20.9577 2.16861 21.6423 2.16861C21.9401 2.16861 22.3429 2.21443 22.8583 2.53705L19.3496 8.99895ZM7.88822 15.8985C9.95756 13.4225 12.0899 11.7961 12.9623 11.1814L19.6132 11.1489C20.2489 11.5842 22.4919 13.2125 24.735 15.8985C26.0297 17.4436 27.0871 19.0403 27.9047 20.6824C28.5614 20.3588 29.2421 20.0768 29.9435 19.8396C29.0205 17.9585 27.8301 16.1513 26.3977 14.4567C24.4372 12.1201 22.4996 10.5452 21.442 9.76445L25.2351 2.79284C25.4699 2.3595 25.3879 1.82499 25.0347 1.49664C23.9943 0.490609 22.8871 0 21.652 0C20.5034 0 19.4689 0.431412 18.5503 0.814482L18.5442 0.817045C17.9123 1.07476 17.3167 1.3172 16.8509 1.3172C16.7096 1.3172 16.597 1.2962 16.4844 1.25229C14.6556 0.589876 13.2448 0.179444 11.8761 0.179444C10.1255 0.179444 8.63081 0.872405 7.16853 2.3595C6.80964 2.72221 6.75428 3.29681 7.03872 3.72633L11.1163 9.82744C10.0664 10.6082 8.16311 12.1717 6.23885 14.4567C4.56468 16.4478 3.22457 18.5744 2.25672 20.7755C1.05024 23.5454 0.435547 26.4375 0.435547 29.3697C0.435547 33.3366 3.69227 36.5627 7.69732 36.5627H18.4982C18.4876 36.3173 18.4822 36.0705 18.4822 35.8225C18.4822 35.3351 18.5029 34.8525 18.5434 34.3755H7.69732C4.9083 34.3755 2.63852 32.1306 2.63852 29.3702C2.63852 24.5977 4.40433 20.0639 7.88822 15.8985Z" fill="#4197D3"/>
</g>
</g>
</svg>
