<svg width="55" height="54" viewBox="0 0 55 54" fill="none" xmlns="http://www.w3.org/2000/svg">
<path d="M30.062 27.1143H18.5508H21.6902C22.8004 27.1143 23.8651 27.5474 24.6501 28.3184C25.4351 29.0894 25.8761 30.1351 25.8761 31.2254C25.8761 32.3158 25.4351 33.3615 24.6501 34.1325C23.8651 34.9034 22.8004 35.3366 21.6902 35.3366H18.5508L24.8296 41.5033" stroke="#EB9AA7" stroke-width="2" stroke-linecap="round" stroke-linejoin="round"/>
<path d="M18.5508 31.2256H30.062" stroke="#EB9AA7" stroke-width="2" stroke-linecap="round" stroke-linejoin="round"/>
<path fill-rule="evenodd" clip-rule="evenodd" d="M26.1325 2.76079C25.059 2.02497 23.6334 2.06534 22.6031 2.86074L21.1828 3.95732C20.8699 4.19889 20.4441 4.23348 20.0963 4.04558L18.0318 2.93007C17.2956 2.53232 16.4231 2.47356 15.6402 2.769C14.2443 3.29583 13.4798 4.79966 13.8768 6.23793L15.4298 11.8638C15.4953 12.1012 15.5882 12.3252 15.7046 12.5328C14.3988 13.0436 13.4739 14.3144 13.4739 15.8011C13.4739 17.0021 14.0774 18.0622 14.9977 18.6946L14.9949 18.699L8.34248 29.153C7.20295 30.9437 6.16814 33.0057 6.0611 35.3359C5.95876 37.5639 6.19432 40.6311 7.55237 43.524C8.92612 46.4503 11.4302 49.1523 15.7506 50.6013C17.5809 51.2151 19.4992 51.3083 21.2813 51.3083H27.3992C29.3333 51.3083 31.4171 51.1847 33.3735 50.5883C32.64 50.1495 31.9674 49.6194 31.3714 49.0137C30.1138 49.2396 28.7724 49.3083 27.3992 49.3083H21.2813C19.542 49.3083 17.8949 49.211 16.3866 48.7051C12.6182 47.4412 10.5201 45.1393 9.3628 42.6741C8.1898 40.1754 7.96548 37.4634 8.05899 35.4277C8.14175 33.6262 8.94882 31.9254 10.0298 30.2267L16.6823 19.7727C16.8658 19.4842 17.184 19.3096 17.5259 19.3096H20.0882C20.6405 19.3096 21.0882 18.8619 21.0882 18.3096C21.0882 17.7573 20.6405 17.3096 20.0882 17.3096H18.9619V17.3093H16.9821C16.1491 17.3093 15.4739 16.6341 15.4739 15.8011C15.4739 14.9682 16.1491 14.293 16.9821 14.293H31.7965C32.6294 14.293 33.3046 14.9682 33.3046 15.8011C33.3046 16.6341 32.6294 17.3093 31.7965 17.3093H30.2038V17.3096H28.4727C27.9204 17.3096 27.4727 17.7573 27.4727 18.3096C27.4727 18.8619 27.9204 19.3096 28.4727 19.3096H30.9418C31.2852 19.3096 31.6046 19.4858 31.7877 19.7764L37.7445 29.2272C38.329 30.1545 38.8703 31.0879 39.3194 32.0336C40.1465 32.1007 40.9452 32.2684 41.7032 32.5246C41.1118 30.9628 40.2842 29.5056 39.4365 28.1608L33.5587 18.8352C34.6028 18.2275 35.3046 17.0963 35.3046 15.8011C35.3046 14.3427 34.4146 13.0921 33.1481 12.5628C33.2725 12.3468 33.3713 12.1126 33.44 11.8638L35.0001 6.21189C35.393 4.78837 34.6364 3.29997 33.2548 2.77854C32.4465 2.47348 31.5435 2.55057 30.7986 2.98822L29.0127 4.03748C28.6784 4.23391 28.2606 4.21935 27.9408 4.00014L26.1325 2.76079ZM15.8047 5.70577C15.6828 5.26396 15.9176 4.80201 16.3464 4.64018C16.5869 4.54942 16.8549 4.56748 17.081 4.68966L19.1456 5.80517C20.1889 6.36887 21.4664 6.2651 22.4051 5.5404L23.8254 4.44382C24.1688 4.17868 24.644 4.16523 25.0018 4.4105L26.8101 5.64985C27.7696 6.30749 29.0228 6.35116 30.0258 5.76189L31.8117 4.71262C32.0352 4.58133 32.3061 4.5582 32.5486 4.64972C32.9631 4.80615 33.1901 5.25267 33.0722 5.67973L31.5121 11.3317C31.3924 11.7653 30.9979 12.0656 30.5481 12.0656H18.3216C17.8718 12.0656 17.4773 11.7653 17.3577 11.3317L15.8047 5.70577ZM25.3761 18.3095C25.3761 18.8545 24.9343 19.2963 24.3893 19.2963C23.8443 19.2963 23.4025 18.8545 23.4025 18.3095C23.4025 17.7646 23.8443 17.3228 24.3893 17.3228C24.9343 17.3228 25.3761 17.7646 25.3761 18.3095Z" fill="#4197D3"/>
<path d="M38.406 49.5786C42.7659 49.5786 46.3003 46.0442 46.3003 41.6843C46.3003 37.3244 42.7659 33.79 38.406 33.79C34.0461 33.79 30.5117 37.3244 30.5117 41.6843C30.5117 46.0442 34.0461 49.5786 38.406 49.5786Z" stroke="#4197D3" stroke-width="2" stroke-linecap="round" stroke-linejoin="round"/>
<path d="M38.8886 43.837H37.4906C37.4948 43.4483 37.5283 43.1223 37.5909 42.859C37.6536 42.5916 37.7581 42.3492 37.9044 42.1318C38.0548 41.9145 38.2534 41.6847 38.4999 41.4423C38.6922 41.2584 38.8656 41.0849 39.0203 40.9219C39.1749 40.7548 39.2982 40.5792 39.3901 40.3953C39.4821 40.2073 39.528 39.992 39.528 39.7496C39.528 39.4863 39.4842 39.2628 39.3964 39.0789C39.3086 38.895 39.1791 38.755 39.0077 38.6588C38.8406 38.5627 38.6316 38.5147 38.3808 38.5147C38.1719 38.5147 37.9754 38.5565 37.7916 38.64C37.6077 38.7194 37.4593 38.8448 37.3465 39.0162C37.2336 39.1833 37.173 39.4049 37.1647 39.6807H35.6538C35.6622 39.1541 35.7876 38.7111 36.03 38.3517C36.2724 37.9922 36.5984 37.7227 37.0079 37.543C37.4175 37.3633 37.8751 37.2734 38.3808 37.2734C38.9409 37.2734 39.4194 37.3695 39.8164 37.5618C40.2135 37.7498 40.5165 38.0257 40.7254 38.3893C40.9386 38.7487 41.0451 39.1833 41.0451 39.6932C41.0451 40.061 40.972 40.3953 40.8257 40.6963C40.6794 40.993 40.4893 41.2709 40.2552 41.53C40.0212 41.785 39.7684 42.0399 39.4967 42.2948C39.2627 42.508 39.1038 42.7399 39.0203 42.9907C38.9367 43.2373 38.8928 43.5194 38.8886 43.837ZM37.3653 45.7929C37.3653 45.5672 37.4426 45.3771 37.5972 45.2224C37.7518 45.0636 37.9629 44.9842 38.2304 44.9842C38.4979 44.9842 38.7089 45.0636 38.8635 45.2224C39.0182 45.3771 39.0955 45.5672 39.0955 45.7929C39.0955 46.0186 39.0182 46.2108 38.8635 46.3696C38.7089 46.5243 38.4979 46.6016 38.2304 46.6016C37.9629 46.6016 37.7518 46.5243 37.5972 46.3696C37.4426 46.2108 37.3653 46.0186 37.3653 45.7929Z" fill="#EB9AA7"/>
</svg>
