<svg width="46" height="47" viewBox="0 0 46 47" fill="none" xmlns="http://www.w3.org/2000/svg">
<g id="Group 1010">
<path id="Fill 8" fill-rule="evenodd" clip-rule="evenodd" d="M18.8428 15.9873C19.2938 15.9873 19.6646 16.3385 19.6646 16.7759C19.6646 17.2091 19.2938 17.5624 18.8428 17.5624H16.6918L16.7287 17.6086C17.0583 18.0439 17.2925 18.5444 17.4117 19.0785H18.8428C19.2613 19.0785 19.6104 19.3834 19.6581 19.7746L19.6646 19.865C19.6646 20.3003 19.2938 20.6536 18.8428 20.6536L17.4139 20.6515L17.3835 20.7819C16.965 22.4515 15.4321 23.6943 13.6042 23.7743L13.4134 23.7785H13.3071L17.2469 27.3386C17.5418 27.6183 17.5808 28.0599 17.338 28.3774L17.2708 28.4553C16.9607 28.7686 16.4446 28.7833 16.1129 28.4868L10.6683 23.564C10.5165 23.4168 10.4211 23.2128 10.4211 23.0088C10.4146 22.5693 10.7811 22.2118 11.2429 22.2034H13.4155C14.4433 22.2013 15.3345 21.5894 15.6901 20.7125L15.7118 20.6515L11.2407 20.6536C10.8201 20.6536 10.471 20.3487 10.4233 19.9575L10.4189 19.865C10.4189 19.4318 10.7876 19.0785 11.2407 19.0785H15.7074L15.6901 19.0344C15.354 18.2164 14.53 17.6233 13.5695 17.5666L13.4177 17.5624H11.2407C10.7876 17.5624 10.4189 17.2091 10.4189 16.7759C10.4189 16.3385 10.7876 15.9873 11.2407 15.9873H18.8428Z" fill="#EB9AA7"/>
<path id="Subtract" fill-rule="evenodd" clip-rule="evenodd" d="M17.9184 8.63843L12.1853 8.71585L8.52833 3.24384C9.27738 2.63884 10.0048 2.36695 10.8691 2.36695C11.8684 2.36695 12.9992 2.70726 14.4973 3.25824C14.834 3.37708 15.1905 3.4383 15.5543 3.4383C16.4466 3.4383 17.2868 3.08957 18.0282 2.78186L18.0301 2.78109L18.0324 2.78011C18.7536 2.47977 19.4352 2.19589 20.081 2.19589C20.3619 2.19589 20.7418 2.23911 21.2279 2.54341L17.9184 8.63843ZM7.10766 15.1458C9.05951 12.8104 11.0708 11.2763 11.8936 10.6965L18.1669 10.6659C18.7665 11.0764 20.8822 12.6123 22.9979 15.1458C24.2192 16.6032 25.2166 18.1094 25.9879 19.6583C26.6071 19.3532 27.2492 19.0872 27.9107 18.8635C27.0401 17.0892 25.9173 15.3847 24.5663 13.7863C22.717 11.5824 20.8894 10.0969 19.8919 9.36045L23.4697 2.78466C23.6912 2.37593 23.6137 1.87176 23.2806 1.56206C22.2993 0.613144 21.255 0.150391 20.09 0.150391C19.0066 0.150391 18.0308 0.557309 17.1644 0.91863L17.1586 0.921046C16.5626 1.16413 16.0008 1.3928 15.5615 1.3928C15.4282 1.3928 15.322 1.373 15.2157 1.33158C13.4908 0.706775 12.1601 0.319647 10.8691 0.319647C9.21796 0.319647 7.80809 0.973264 6.42883 2.37593C6.09032 2.71804 6.0381 3.26002 6.30639 3.66516L10.1525 9.41987C9.16214 10.1563 7.36694 11.631 5.55194 13.7863C3.97282 15.6643 2.7088 17.6702 1.7959 19.7463C0.657917 22.359 0.078125 25.0869 0.078125 27.8526C0.078125 31.5942 3.14994 34.6372 6.9276 34.6372H17.1155C17.1055 34.4057 17.1004 34.1729 17.1004 33.9388C17.1004 33.479 17.1199 33.0237 17.1581 32.5738H6.9276C4.29693 32.5738 2.15602 30.4563 2.15602 27.8526C2.15602 23.3511 3.82157 19.0747 7.10766 15.1458Z" fill="#4197D3"/>
<g id="Group 1009">
<path id="Ellipse 41" d="M24.0142 26.4074L24.9964 26.2201C24.8948 25.687 24.3865 25.3323 23.8511 25.4208L24.0142 26.4074ZM43.6983 33.9386C43.6983 39.8552 38.9019 44.6515 32.9853 44.6515V46.6515C40.0065 46.6515 45.6983 40.9597 45.6983 33.9386H43.6983ZM32.9853 44.6515C27.0687 44.6515 22.2724 39.8552 22.2724 33.9386H20.2724C20.2724 40.9597 25.9642 46.6515 32.9853 46.6515V44.6515ZM32.9853 23.2256C38.9019 23.2256 43.6983 28.0219 43.6983 33.9386H45.6983C45.6983 26.9174 40.0065 21.2256 32.9853 21.2256V23.2256ZM28.4023 24.2524C29.7905 23.5942 31.3435 23.2256 32.9853 23.2256V21.2256C31.041 21.2256 29.1959 21.6628 27.5455 22.4452L28.4023 24.2524ZM22.2724 33.9386C22.2724 31.3147 23.2144 28.9135 24.7797 27.0508L23.2486 25.7641C21.3917 27.9737 20.2724 30.8267 20.2724 33.9386H22.2724ZM23.0319 26.5948L23.7711 30.471L25.7356 30.0963L24.9964 26.2201L23.0319 26.5948ZM23.8511 25.4208L19.501 26.1398L19.8271 28.113L24.1772 27.394L23.8511 25.4208Z" fill="#4197D3"/>
<circle id="Ellipse 42" cx="33.0108" cy="33.9386" r="1.63095" fill="#EB9AA7" stroke="#EB9AA7"/>
<path id="Vector 45" d="M34.0615 25.251C34.0615 24.6987 33.6138 24.251 33.0615 24.251C32.5092 24.251 32.0615 24.6987 32.0615 25.251H34.0615ZM32.0615 31.251V32.251H34.0615V31.251H32.0615ZM32.0615 25.251V31.251H34.0615V25.251H32.0615Z" fill="#EB9AA7"/>
<path id="Vector 46" d="M35.168 32.8564H34.168V34.8564H35.168V32.8564ZM38.168 34.8564C38.7203 34.8564 39.168 34.4087 39.168 33.8564C39.168 33.3042 38.7203 32.8564 38.168 32.8564V34.8564ZM35.168 34.8564H38.168V32.8564H35.168V34.8564Z" fill="#EB9AA7"/>
</g>
</g>
</svg>
