<svg width="55" height="54" viewBox="0 0 55 54" fill="none" xmlns="http://www.w3.org/2000/svg">
<path fill-rule="evenodd" clip-rule="evenodd" d="M31.2647 23.8379C31.7157 23.8379 32.0864 24.1891 32.0864 24.6265C32.0864 25.0597 31.7157 25.4129 31.2647 25.4129H29.1137L29.1506 25.4592C29.4802 25.8945 29.7143 26.395 29.8336 26.9291H31.2647C31.6831 26.9291 32.0322 27.234 32.0799 27.6252L32.0864 27.7156C32.0864 28.1509 31.7157 28.5042 31.2647 28.5042L29.8358 28.5021L29.8054 28.6324C29.3869 30.3021 27.8539 31.5449 26.0261 31.6248L25.8352 31.629H25.729L29.6688 35.1892C29.9637 35.4689 30.0027 35.9105 29.7599 36.228L29.6926 36.3058C29.3826 36.6192 28.8665 36.6339 28.5348 36.3374L23.0902 31.4146C22.9384 31.2674 22.843 31.0634 22.843 30.8594C22.8365 30.4199 23.2029 30.0624 23.6648 30.054H25.8374C26.8652 30.0519 27.7564 29.44 28.112 28.5631L28.1336 28.5021L23.6626 28.5042C23.242 28.5042 22.8929 28.1993 22.8452 27.8081L22.8408 27.7156C22.8408 27.2824 23.2094 26.9291 23.6626 26.9291H28.1293L28.112 26.885C27.7759 26.0669 26.9519 25.4739 25.9914 25.4172L25.8396 25.4129H23.6626C23.2094 25.4129 22.8408 25.0597 22.8408 24.6265C22.8408 24.1891 23.2094 23.8379 23.6626 23.8379H31.2647Z" fill="#EB9AA7"/>
<path fill-rule="evenodd" clip-rule="evenodd" d="M30.3406 16.488L24.6075 16.5655L20.9505 11.0934C21.6996 10.4884 22.427 10.2166 23.2913 10.2166C24.2906 10.2166 25.4214 10.5569 26.9195 11.1079C27.2562 11.2267 27.6127 11.2879 27.9765 11.2879C28.8688 11.2879 29.709 10.9392 30.4504 10.6315L30.4523 10.6307L30.4546 10.6297C31.1758 10.3294 31.8574 10.0455 32.5032 10.0455C32.784 10.0455 33.164 10.0887 33.6501 10.393L30.3406 16.488ZM19.5299 22.9954C21.4817 20.66 23.493 19.1259 24.3158 18.5461L30.5891 18.5155C31.1887 18.926 33.3044 20.4619 35.4201 22.9954C38.7062 26.9171 40.3718 31.1917 40.3718 35.7022C40.379 36.9482 39.8946 38.1258 39.0105 39.0153C38.1066 39.9246 36.9002 40.4234 35.6128 40.4234H22.4091C22.3172 41.1347 22.1573 41.8248 21.9362 42.4868H35.6128C39.3904 42.4868 42.4641 39.4438 42.4641 35.7022C42.4641 32.9383 41.8861 30.2122 40.7427 27.5959C39.8262 25.5036 38.5622 23.4977 36.9884 21.6359C35.1392 19.432 33.3116 17.9465 32.3141 17.2101L35.8919 10.6343C36.1134 10.2255 36.0359 9.72137 35.7028 9.41167C34.7215 8.46275 33.6771 8 32.5122 8C31.4288 8 30.453 8.40692 29.5866 8.76824L29.5808 8.77066C28.9848 9.01374 28.423 9.24241 27.9837 9.24241C27.8504 9.24241 27.7442 9.22261 27.6379 9.18119C25.913 8.55638 24.5823 8.16926 23.2913 8.16926C21.6402 8.16926 20.2303 8.82287 18.851 10.2255C18.5125 10.5677 18.4603 11.1096 18.7286 11.5148L22.5747 17.2695C21.5843 18.0059 19.7891 19.4806 17.9741 21.6359C16.395 23.5139 15.131 25.5198 14.2181 27.5959C14.1204 27.8201 14.0269 28.0451 13.9375 28.2709C14.6204 28.4254 15.2792 28.6434 15.9073 28.9184C16.7333 26.8721 17.9425 24.8932 19.5299 22.9954Z" fill="#4197D3"/>
<path d="M5.97113 33.8562L6.92153 33.5452C6.76567 33.069 6.28144 32.7816 5.78877 32.873L5.97113 33.8562ZM19.0985 39C19.0985 42.866 15.9645 46 12.0985 46V48C17.069 48 21.0985 43.9706 21.0985 39H19.0985ZM12.0985 46C8.23249 46 5.09848 42.866 5.09848 39H3.09848C3.09848 43.9706 7.12792 48 12.0985 48V46ZM12.0985 32C15.9645 32 19.0985 35.134 19.0985 39H21.0985C21.0985 34.0294 17.069 30 12.0985 30V32ZM9.10403 32.6707C10.0107 32.2409 11.025 32 12.0985 32V30C10.7225 30 9.41604 30.3095 8.24729 30.8635L9.10403 32.6707ZM5.09848 39C5.09848 37.2853 5.71375 35.7168 6.7367 34.4996L5.20556 33.2129C3.8911 34.777 3.09848 36.7973 3.09848 39H5.09848ZM5.02073 34.1673L6.0496 37.311L7.9504 36.689L6.92153 33.5452L5.02073 34.1673ZM5.78877 32.873L2.31764 33.5168L2.68236 35.4832L6.15349 34.8394L5.78877 32.873Z" fill="#4197D3"/>
<path d="M13 34C13 33.4477 12.5523 33 12 33C11.4477 33 11 33.4477 11 34L13 34ZM11 37L11 38L13 38L13 37L11 37ZM11 34L11 37L13 37L13 34L11 34Z" fill="#EB9AA7"/>
<path d="M14.5 38H13.5V40H14.5V38ZM15.5 40C16.0523 40 16.5 39.5523 16.5 39C16.5 38.4477 16.0523 38 15.5 38V40ZM14.5 40H15.5V38H14.5V40Z" fill="#EB9AA7"/>
<circle cx="12" cy="39" r="2" fill="#EB9AA7"/>
<path d="M42.5 13L46.3889 16.8889L50.2778 13" stroke="#EB9AA7" stroke-width="2" stroke-linecap="round" stroke-linejoin="round"/>
<path d="M46.3887 6L46.3887 16.8889" stroke="#EB9AA7" stroke-width="2" stroke-linecap="round" stroke-linejoin="round"/>
<line x1="42" y1="20.5" x2="51" y2="20.5" stroke="#4197D3" stroke-width="3" stroke-linecap="round"/>
</svg>
