<svg width="50" height="48" viewBox="0 0 50 48" fill="none" xmlns="http://www.w3.org/2000/svg">
<g id="icons/Careers/performance">
<g id="Group 742">
<g id="Group 740">
<path id="Subtract" fill-rule="evenodd" clip-rule="evenodd" d="M28.2073 44.753H31.5662V42.4977C32.5529 44.4539 34.1632 46.0417 36.1359 47H32.6858H27.0876H21.4893H15.891H10.2927H4.69442H1.54348C0.96809 47 0.5 46.5514 0.5 46C0.5 45.4486 0.96809 45 1.54348 45H3.57485V36.8333C3.57485 35.8224 4.49568 35 5.62747 35H9.35967C10.4916 35 11.4124 35.8224 11.4124 36.8333V45H14.7713V32.9556C14.7713 31.8772 15.6922 31 16.824 31H20.5562C21.688 31 22.6089 31.8772 22.6089 32.9556V45H25.9679V27.0596C25.9679 25.9239 26.8888 25 28.0207 25H31.7528C32.8847 25 33.8055 25.9239 33.8055 27.0596V30.5713C32.8895 31.3973 32.1271 32.3903 31.5662 33.5023V27.2467H28.2073V44.753ZM20.3696 44.8666H17.0106V33.1333H20.3696V44.8666ZM9.4015 37.5H9.40328V37L9.4015 37.5ZM5.81408 44.9999H9.17306V37H5.81408V44.9999Z" fill="#4197D3"/>
<path id="Subtract_2" fill-rule="evenodd" clip-rule="evenodd" d="M41.6984 5.28422C41.3099 4.90526 40.6901 4.90526 40.3017 5.28422L32.8017 12.6013C32.5106 12.8853 32.4205 13.3173 32.5738 13.694C32.7271 14.0708 33.0933 14.3171 33.5 14.3171H37V28.6296C37.6383 28.3911 38.3076 28.2159 39 28.1117V13.3171C39 12.7648 38.5523 12.3171 38 12.3171H35.957L41 7.39707L46.043 12.3171H43.5C42.9477 12.3171 42.5 12.7648 42.5 13.3171V28.2C43.1956 28.3412 43.865 28.5546 44.5 28.8321V14.3171H48.5C48.9067 14.3171 49.2729 14.0708 49.4263 13.694C49.5796 13.3173 49.4895 12.8853 49.1984 12.6013L41.6984 5.28422Z" fill="#EB9AA7"/>
<circle id="Ellipse 28" cx="40.5" cy="38" r="7" stroke="#4197D3" stroke-width="2"/>
<path id="Fill 1" fill-rule="evenodd" clip-rule="evenodd" d="M42.7567 34.8809C42.9901 34.8809 43.1809 35.0618 43.1809 35.2847C43.1809 35.5076 42.9901 35.6885 42.7567 35.6885H41.6465L41.6659 35.7118C41.8354 35.9356 41.9565 36.1921 42.0175 36.4663H42.7567C42.9746 36.4663 43.1538 36.622 43.179 36.8226L43.1809 36.8692C43.1809 37.093 42.9901 37.273 42.7567 37.273L42.0185 37.2721L42.004 37.3392C41.787 38.1954 40.9956 38.8323 40.0511 38.8734L39.9523 38.8752H39.898L41.9323 40.7013C42.0863 40.8449 42.1057 41.0706 41.9798 41.2338L41.9459 41.2739C41.7851 41.4343 41.5177 41.4427 41.3482 41.2897L38.5361 38.7652C38.4566 38.6896 38.4082 38.5861 38.4082 38.4807C38.4043 38.256 38.5932 38.0722 38.8325 38.0685H39.9542C40.4841 38.0676 40.9452 37.7533 41.1283 37.3038L41.1399 37.2721L38.8305 37.273C38.6136 37.273 38.4334 37.1173 38.4092 36.9167L38.4062 36.8692C38.4062 36.6472 38.5971 36.4663 38.8305 36.4663H41.138L41.1283 36.443C40.9549 36.0242 40.5296 35.7202 40.0337 35.6904L39.9542 35.6885H38.8305C38.5971 35.6885 38.4062 35.5076 38.4062 35.2847C38.4062 35.0618 38.5971 34.8809 38.8305 34.8809H42.7567Z" fill="#4197D3"/>
</g>
</g>
</g>
</svg>
