<svg width="40" height="47" viewBox="0 0 40 47" fill="none" xmlns="http://www.w3.org/2000/svg">
<g id="Group 4472">
<path id="Vector" d="M1.5 37.1851V4.71968C1.5 2.66543 3.1653 1 5.21968 1H31.6122C33.6665 1 35.3319 2.66543 35.3319 4.71968V37.9151M1.5 37.1851L9.64648 45.3314M1.5 37.1851H8.40658C9.09125 37.1851 9.64648 37.7402 9.64648 38.425V45.3314M9.64648 45.3314H33.4802C34.5029 45.3314 35.3319 44.5024 35.3319 43.4798V43.32" stroke="#4197D3" stroke-width="1.61186" stroke-linecap="round" stroke-linejoin="round"/>
<path id="Vector_2" d="M23.8732 19.4543L13.8135 29.3574C12.0412 29.0447 9.6957 29.9309 10.6339 31.8594L16.9408 38.2704C17.9311 38.6353 18.9736 36.9153 18.9736 35.1432L29.3459 24.9792C30.5448 24.8403 32.7652 24.1974 32.0563 22.738L25.6974 16.4832C25.0892 16.3095 23.8732 16.6605 23.8732 19.4543Z" stroke="#EB9AA7" stroke-width="1.61186" stroke-linecap="round" stroke-linejoin="round"/>
<path id="Vector_3" d="M28.8249 25.0583L23.6387 19.8721" stroke="#EB9AA7" stroke-width="1.61186" stroke-linecap="round" stroke-linejoin="round"/>
<path id="Vector_4" d="M19.2477 34.6145L14.6025 29.6846" stroke="#EB9AA7" stroke-width="1.61186" stroke-linecap="round" stroke-linejoin="round"/>
<path id="Vector_5" d="M25.8847 29.0127L38.6787 41.8067C39.3278 42.4558 39.3278 43.5083 38.6787 44.1574C38.0295 44.8065 36.9771 44.8065 36.3279 44.1574L23.6387 31.4682L25.8847 29.0127Z" stroke="#EB9AA7" stroke-width="1.61186" stroke-linecap="round" stroke-linejoin="round"/>
<path id="Vector_6" d="M6.65723 6.6377H21.6205" stroke="#EB9AA7" stroke-width="1.61186" stroke-linecap="round" stroke-linejoin="round"/>
<path id="Vector_7" d="M6.65723 11.542H26.5249" stroke="#4197D3" stroke-width="1.61186" stroke-linecap="round" stroke-linejoin="round"/>
<path id="Vector_8" d="M6.65723 16.4463H18.4168" stroke="#4197D3" stroke-width="1.61186" stroke-linecap="round" stroke-linejoin="round"/>
</g>
</svg>
