<svg width="49" height="48" viewBox="0 0 49 48" fill="none" xmlns="http://www.w3.org/2000/svg">
<g id="icons/Product/wealth plans">
<g id="Group 54">
<g id="Group 15">
<g id="Group 3">
<mask id="mask0_1777_2635" style="mask-type:luminance" maskUnits="userSpaceOnUse" x="12" y="0" width="35" height="37">
<path id="Clip 2" fill-rule="evenodd" clip-rule="evenodd" d="M12.4277 0.799805H46.0999V36.4523H12.4277V0.799805Z" fill="white"/>
</mask>
<g mask="url(#mask0_1777_2635)">
<path id="Fill 1" fill-rule="evenodd" clip-rule="evenodd" d="M45.3348 5.46068H43.0382C40.6532 5.46068 38.2834 5.06938 36.0203 4.30378C33.7588 3.53508 31.6343 2.40447 29.7233 0.955245C29.4505 0.747991 29.0771 0.747991 28.8043 0.955245C24.9578 3.86916 20.2884 5.44986 15.4894 5.46068H13.1928C12.7706 5.46068 12.4277 5.80868 12.4277 6.23711V12.2954C12.4277 13.6905 12.539 15.084 12.7645 16.4606L14.2733 16.2069C14.063 14.9139 13.9593 13.6054 13.9578 12.2954V7.01354H15.4894C20.4255 7.00271 25.2367 5.43903 29.2646 2.53903C31.1863 3.92484 33.3 5.01679 35.5342 5.77775C37.9542 6.59594 40.4871 7.01354 43.0382 7.01354H44.5698V12.2954C44.5408 21.5723 39.2877 30.0156 31.0476 34.0323L28.9354 35.05L29.5922 36.4528L31.706 35.4351C40.4764 31.1601 46.0694 22.1709 46.0999 12.2954V6.23711C46.0999 5.80868 45.757 5.46068 45.3348 5.46068Z" fill="#4197D3"/>
</g>
</g>
<path id="Fill 4" fill-rule="evenodd" clip-rule="evenodd" d="M30.39 32.6302C38.0997 28.8734 43.0115 20.973 43.0389 12.2946V9.32813C43.0405 8.90743 42.7113 8.56253 42.2968 8.5517C37.8254 8.4125 33.4684 7.07618 29.6691 4.67575C29.4223 4.51954 29.1083 4.51954 28.8614 4.67575C25.0637 7.07618 20.7067 8.4125 16.2338 8.5517C15.8208 8.56253 15.4932 8.90743 15.4932 9.32813V12.2946C15.4932 13.699 15.6242 15.1003 15.8833 16.4799L17.3875 16.186C17.1436 14.9039 17.0217 13.6 17.0202 12.2946V10.0705C21.3452 9.81533 25.5453 8.50221 29.2653 6.24407C32.9823 8.50221 37.1838 9.81533 41.5089 10.0705V12.2946C41.483 20.3744 36.9095 27.7273 29.7331 31.2258L28.9376 31.6063L29.5914 33.0122L30.39 32.6302Z" fill="#4197D3"/>
<path id="Fill 6" fill-rule="evenodd" clip-rule="evenodd" d="M27.9331 21.1816C27.6893 21.1816 27.4637 21.0996 27.3022 20.948L24.6002 18.4347C24.4356 18.28 24.3457 18.0805 24.3457 17.8748C24.3457 17.6675 24.4356 17.468 24.6017 17.3149C24.7678 17.1587 24.9858 17.0736 25.2159 17.0736C25.443 17.0736 25.6609 17.1587 25.8285 17.3149L27.8996 19.2405L32.6331 14.8341C32.7992 14.6778 33.0262 14.5928 33.2686 14.5928C33.5139 14.5928 33.7501 14.6794 33.9345 14.8371C34.0976 14.9887 34.1875 15.1882 34.1875 15.3924C34.1875 15.5997 34.0961 15.7976 33.933 15.9523L28.5641 20.948C28.3659 21.1011 28.1419 21.1816 27.9331 21.1816Z" fill="#4197D3"/>
<path id="Fill 8" fill-rule="evenodd" clip-rule="evenodd" d="M18.2517 31.9443C18.5687 31.9443 18.8293 32.2026 18.8293 32.5243C18.8293 32.8429 18.5687 33.1028 18.2517 33.1028H16.7399L16.7658 33.1368C16.9975 33.457 17.162 33.8251 17.2459 34.2179H18.2517C18.5458 34.2179 18.7912 34.4422 18.8247 34.7299L18.8293 34.7964C18.8293 35.1165 18.5687 35.3764 18.2517 35.3764L17.2474 35.3748L17.226 35.4707C16.9319 36.6988 15.8545 37.6129 14.5698 37.6716L14.4357 37.6747H14.361L17.13 40.2932C17.3373 40.4989 17.3647 40.8237 17.194 41.0573L17.1468 41.1145C16.9289 41.345 16.5662 41.3558 16.333 41.1377L12.5063 37.517C12.3996 37.4087 12.3326 37.2587 12.3326 37.1087C12.328 36.7854 12.5856 36.5225 12.9102 36.5163H14.4372C15.1595 36.5147 15.7859 36.0647 16.0358 35.4197L16.0511 35.3748L12.9086 35.3764C12.613 35.3764 12.3676 35.1521 12.3341 34.8644L12.3311 34.7964C12.3311 34.4778 12.5901 34.2179 12.9086 34.2179H16.048L16.0358 34.1855C15.7996 33.5838 15.2205 33.1476 14.5454 33.1059L14.4387 33.1028H12.9086C12.5901 33.1028 12.3311 32.8429 12.3311 32.5243C12.3311 32.2026 12.5901 31.9443 12.9086 31.9443H18.2517Z" fill="#EB9AA7"/>
<g id="Group 12">
<mask id="mask1_1777_2635" style="mask-type:luminance" maskUnits="userSpaceOnUse" x="2" y="17" width="27" height="31">
<path id="Clip 11" fill-rule="evenodd" clip-rule="evenodd" d="M2.90039 17.5771H28.2606V47.1997H2.90039V17.5771Z" fill="white"/>
</mask>
<g mask="url(#mask1_1777_2635)">
<path id="Fill 10" fill-rule="evenodd" clip-rule="evenodd" d="M13.1474 24.9346L17.9997 24.8681L20.8008 19.6327C20.3893 19.3713 20.0678 19.3341 19.83 19.3341C19.2829 19.3341 18.7053 19.5785 18.0942 19.8368C17.4664 20.1013 16.7547 20.4013 15.9988 20.4013C15.6909 20.4013 15.3892 20.3488 15.1042 20.2467C13.8363 19.7734 12.8792 19.4811 12.0334 19.4811C11.3019 19.4811 10.6862 19.7146 10.0522 20.2343L13.1474 24.9346ZM12.9008 26.636C12.2043 27.1341 10.502 28.4518 8.85005 30.4578C6.0688 33.8327 4.65913 37.506 4.65913 41.3727C4.65913 43.6091 6.47113 45.428 8.69765 45.428H22.4622C23.5518 45.428 24.5729 44.9996 25.3379 44.2185C26.0862 43.4545 26.4961 42.443 26.49 41.3727C26.49 37.4983 25.0803 33.8265 22.2991 30.4578C20.5084 28.2817 18.7178 26.9624 18.2103 26.6097L12.9008 26.636ZM8.69758 47.2005C5.50028 47.2005 2.90039 44.5866 2.90039 41.3726C2.90039 38.9969 3.39111 36.6537 4.35426 34.4095C5.12691 32.6262 6.19674 30.9032 7.53326 29.2901C9.06942 27.4387 10.5888 26.172 11.427 25.5394L8.17181 20.5962C7.94473 20.2482 7.98893 19.7827 8.27544 19.4888C9.4428 18.284 10.6361 17.7225 12.0335 17.7225C13.1262 17.7225 14.2524 18.0551 15.7124 18.5918C15.8023 18.6273 15.8922 18.6443 16.005 18.6443C16.3769 18.6443 16.8523 18.4479 17.3568 18.2391C18.0913 17.9282 18.9188 17.5771 19.8378 17.5771C20.8238 17.5771 21.7077 17.9746 22.5383 18.7897C22.8202 19.0558 22.8857 19.4888 22.6983 19.8399L19.6702 25.4883C20.5144 26.1209 22.0613 27.3969 23.6264 29.2901C24.9583 30.8893 26.0282 32.6123 26.8039 34.4095C27.7716 36.6568 28.2608 38.9985 28.2608 41.3726C28.2608 44.5866 25.6594 47.2005 22.4621 47.2005H8.69758Z" fill="#4197D3"/>
</g>
</g>
<path id="Fill 13" fill-rule="evenodd" clip-rule="evenodd" d="M16.4076 3.89988C16.0144 3.89988 15.6943 3.57508 15.6943 3.17449C15.6943 2.77545 16.0144 2.45065 16.4076 2.45065C18.0413 2.45065 19.3503 2.12585 20.2937 1.48553C20.6213 1.26436 21.0663 1.35406 21.2843 1.6866C21.5022 2.01913 21.4123 2.46921 21.0861 2.69193C19.902 3.4931 18.3278 3.89988 16.4076 3.89988Z" fill="#EB9AA7"/>
</g>
</g>
</g>
</svg>
