<svg width="55" height="54" viewBox="0 0 55 54" fill="none" xmlns="http://www.w3.org/2000/svg">
<g id="Group 50 Copy 2">
<g id="Group 6">
<g id="Group 3">
<mask id="mask0_1777_641" style="mask-type:luminance" maskUnits="userSpaceOnUse" x="2" y="7" width="51" height="41">
<path id="Clip 2" fill-rule="evenodd" clip-rule="evenodd" d="M2.2998 7.49902H52.7V47.3841H2.2998V7.49902Z" fill="white"/>
</mask>
<g mask="url(#mask0_1777_641)">
<path id="Fill 1" fill-rule="evenodd" clip-rule="evenodd" d="M34.4479 45.9068H20.7309V44.7689C20.7309 42.9705 21.7133 42.3455 23.3778 41.8346L26.1202 43.445C26.257 43.6154 26.4686 43.761 26.7895 43.8309C27.0681 43.9667 27.33 44.0347 27.5908 44.0347C27.8202 44.0347 28.0505 43.9815 28.2917 43.8762C28.4285 43.8171 28.5683 43.7403 28.713 43.6468L30.8373 42.3996L31.803 41.8326C32.3473 41.997 32.8198 42.1732 33.2077 42.3996C33.7855 42.7353 34.1783 43.1832 34.3505 43.8762C34.4145 44.137 34.448 44.4324 34.448 44.769V45.9068H34.4479ZM19.8735 42.4008H9.91087V39.2637C9.91087 38.8562 9.58012 38.5254 9.17258 38.5254C8.76505 38.5254 8.4343 38.8562 8.4343 39.2637V42.4008H4.11211L4.96458 35.7839C5.12798 34.517 5.505 33.6145 6.04641 32.9421C6.08775 32.9047 6.12319 32.8625 6.15567 32.8152C7.16466 31.6634 8.69329 31.2274 10.4583 30.7461L13.7972 33.0071C14.2923 33.3733 14.7333 33.5555 15.1743 33.5555C15.6153 33.5555 16.0563 33.3733 16.5515 33.0071L19.8894 30.7461C20.4682 30.9045 21.0234 31.0581 21.552 31.2402C21.4604 31.7422 21.4122 32.2688 21.4122 32.8191V34.4837C21.4122 36.3215 22.747 38.4241 24.5444 39.6614C24.4568 39.8524 24.3465 40.0325 24.2136 40.0699C24.0965 40.1015 23.9784 40.1329 23.8593 40.1654C23.6762 40.2136 23.4882 40.2638 23.2952 40.318C23.2834 40.3219 23.2706 40.3248 23.2588 40.3288C22.0213 40.6791 20.6482 41.191 19.8735 42.4008ZM18.4512 29.9362L15.7098 31.7927C15.701 31.7986 15.6921 31.8055 15.6833 31.8114C15.2078 32.1658 15.1409 32.1658 14.6654 31.8114C14.6566 31.8055 14.6477 31.7986 14.6379 31.7927L11.8975 29.9362C12.1583 29.632 12.3404 29.2856 12.4753 28.9725C12.7312 29.1044 12.9921 29.2205 13.2569 29.319C13.9558 29.5779 14.5651 29.6979 15.1744 29.6979C15.7818 29.6979 16.3901 29.5779 17.0891 29.319C17.3548 29.2196 17.6157 29.1034 17.8726 28.9725C18.0073 29.2845 18.1894 29.632 18.4512 29.9362ZM9.2915 22.2545V20.8714C10.4678 20.6253 11.0653 20.015 11.4817 19.5888C11.904 19.1576 12.0054 19.0552 12.5016 19.1842C12.8412 19.2708 13.1296 19.3476 13.3796 19.4145C14.2144 19.637 14.6741 19.7601 15.1741 19.7601C15.6742 19.7601 16.1339 19.637 16.9686 19.4145C17.2177 19.3476 17.5061 19.2708 17.8467 19.1832C18.3409 19.0562 18.4413 19.1576 18.8626 19.5888C19.28 20.014 19.8785 20.6253 21.0567 20.8714V22.2545C21.0567 24.3936 18.962 27.0483 16.5749 27.9352C16.0463 28.1321 15.6004 28.2226 15.1741 28.2226C14.7449 28.2226 14.299 28.1321 13.7704 27.9362C11.3843 27.0482 9.2915 24.3935 9.2915 22.2545ZM29.9778 41.1922L27.9529 42.3814C27.944 42.3872 27.9342 42.3921 27.9253 42.3981C27.9243 42.399 27.9234 42.399 27.9224 42.4C27.5966 42.6106 27.5828 42.6106 27.251 42.397C27.2422 42.3921 27.2343 42.3872 27.2254 42.3814L25.9812 41.6509L25.2006 41.1931C25.5018 40.9579 25.7036 40.6469 25.8444 40.3613C25.8857 40.3781 25.9271 40.3958 25.9694 40.4115C26.0245 40.4322 26.0796 40.4519 26.1338 40.4706C26.6447 40.6448 27.1162 40.7325 27.5887 40.7325H27.5897C28.1114 40.7325 28.6331 40.6251 29.208 40.4115C29.2503 40.3958 29.2916 40.3781 29.334 40.3613C29.4746 40.6469 29.6765 40.9579 29.9778 41.1922ZM22.8887 33.4521C23.8229 33.2297 24.3092 32.7356 24.6508 32.3861C24.7612 32.273 24.8904 32.1015 25.0516 32.0588C25.2157 32.015 25.4193 32.103 25.5745 32.144C26.0187 32.2611 26.4609 32.3928 26.9107 32.4872C27.2746 32.5636 27.6389 32.5878 28.0082 32.5343C28.4385 32.4719 28.8594 32.3422 29.2788 32.2306C29.4105 32.1955 29.5423 32.1606 29.6741 32.1261C29.7893 32.0961 29.91 32.0533 30.03 32.0493C30.2421 32.0424 30.3953 32.2487 30.529 32.386C30.8717 32.7344 31.358 33.2296 32.2931 33.452V34.4837C32.2931 36.1641 30.5783 38.3305 28.6944 39.0284C28.3607 39.1525 28.0673 39.2253 27.7809 39.247C27.3664 39.2804 26.9668 39.2077 26.4835 39.0275C26.4313 39.0077 26.3801 38.9881 26.3279 38.9664C24.5088 38.2115 22.8886 36.1187 22.8886 34.4837V33.4521H22.8887ZM23.19 30.7646C23.9095 28.5213 25.8024 27.4512 27.591 27.4168C29.1434 27.4463 30.7753 28.2566 31.6485 29.9357C31.862 30.3472 32.0314 30.8098 32.1417 31.3266C32.1801 31.5028 32.2116 31.6859 32.2352 31.8749C32.0255 31.7706 31.869 31.6358 31.7184 31.4861C31.6741 31.4428 31.6298 31.3985 31.5845 31.3522C31.2676 31.0294 30.862 30.615 30.1621 30.5785C29.8549 30.5599 29.5501 30.6235 29.2549 30.7021C28.9592 30.7809 28.6655 30.867 28.3693 30.9442C28.0545 31.0263 27.7316 31.1197 27.4035 31.0759C26.9344 31.0133 26.4728 30.8537 26.0164 30.7335C25.5263 30.6042 25.0346 30.4978 24.5404 30.6711C24.1619 30.8039 23.8708 31.0719 23.5953 31.3533C23.3985 31.5541 23.2164 31.7401 22.9466 31.8749C22.9764 31.6366 23.0339 31.2287 23.19 30.7646ZM32.0837 20.6668V19.9602C34.0839 19.7863 34.4166 18.1672 34.6402 17.075C34.8874 15.8673 35.0185 15.585 35.7389 15.585H38.2495C39.94 15.585 40.8969 16.4825 41.9101 17.4328C42.8909 18.3528 44.0026 19.3956 45.7645 19.3956H46.4675V20.6668C46.4675 23.2811 43.9179 26.5202 41.0105 27.599C40.3623 27.8403 39.814 27.9528 39.2853 27.9528C38.7571 27.9528 38.2077 27.8402 37.5565 27.5986C34.641 26.5168 32.0837 23.2777 32.0837 20.6668ZM34.9652 10.695C35.1707 10.6768 35.3592 10.5735 35.4851 10.41C36.2753 9.38382 37.6039 8.97383 39.0118 8.97383C39.9311 8.97383 40.8845 9.14865 41.7433 9.44101C43.9226 10.1827 46.4674 12.0529 46.4674 14.8819V17.9182H45.7645C44.5867 17.9182 43.8513 17.2283 42.9202 16.355C41.7971 15.3016 40.5241 14.1075 38.2494 14.1075H35.7389C33.7403 14.1075 33.4113 15.7146 33.1936 16.7781C32.9621 17.9087 32.801 18.3741 32.0837 18.4765C32.0837 18.4765 32.083 15.9977 32.082 15.9387C32.0465 13.666 32.518 10.9115 34.9652 10.695ZM39.838 31.6992C39.8291 31.7051 39.8202 31.711 39.8114 31.7179C39.5102 31.9413 39.3635 31.9886 39.2936 31.9886H39.2838C39.2798 31.9886 39.2769 31.9897 39.2739 31.9886C39.204 31.9886 39.0573 31.9413 38.7561 31.7179C38.7473 31.711 38.7394 31.7051 38.7296 31.6992L35.9597 29.8219C36.241 29.4959 36.433 29.1203 36.5716 28.7902C36.7275 28.8589 36.8843 28.9246 37.0427 28.9834C37.8636 29.2878 38.5762 29.4298 39.2851 29.4298C39.9953 29.4298 40.7074 29.2877 41.5248 28.9834C41.6835 28.9245 41.8406 28.8587 41.9967 28.7896C42.1352 29.1192 42.3271 29.4952 42.6083 29.8215L39.838 31.6992ZM49.5409 33.5538C49.9543 34.1785 50.2263 34.9054 50.3312 35.7215L51.1946 42.4011H46.1722V39.2645C46.1722 38.8568 45.8416 38.5262 45.4339 38.5262C45.0262 38.5262 44.6956 38.8568 44.6956 39.2645V42.4011H35.3072C34.5315 41.1874 33.1533 40.6775 31.9141 40.3271C31.9043 40.3241 31.8944 40.3212 31.8856 40.3193C31.6916 40.2641 31.5007 40.2139 31.3176 40.1646C31.1985 40.1331 31.0813 40.1016 30.9671 40.0701C30.8333 40.0337 30.722 39.8526 30.6344 39.6616C32.4339 38.4244 33.7696 36.3208 33.7696 34.4839V32.8193C33.7696 32.1401 33.6987 31.4953 33.5579 30.8901C33.7991 30.823 34.4418 30.6517 34.5216 30.6311L37.8891 32.9127C38.2425 33.1747 38.715 33.4669 39.2839 33.465C39.849 33.4719 40.3254 33.1747 40.6788 32.9127L44.0472 30.6301C44.1132 30.6488 44.1811 30.6665 44.248 30.6842C45.2718 30.956 46.3309 31.2365 47.2738 31.6676C48.23 32.1047 49.0045 32.7431 49.5409 33.5538ZM47.8872 30.3233C46.83 29.8409 45.7098 29.5436 44.627 29.2562C44.4543 29.2099 44.2818 29.1624 44.1094 29.1152C43.7107 29.0064 43.4691 28.5045 43.3031 28.0796C45.95 26.3644 47.9442 23.3155 47.9442 20.6664V14.8824C47.9442 11.9118 45.697 9.22738 42.2193 8.04367C40.7619 7.54754 39.2182 7.38305 37.8732 7.58032C36.4695 7.78616 35.3171 8.36576 34.5193 9.26331C32.8911 9.51885 30.5252 10.7798 30.6058 15.9622C30.6066 16.0118 30.6073 20.6664 30.6073 20.6664C30.6073 23.3144 32.6092 26.365 35.2656 28.0814C35.0994 28.507 34.8576 29.0064 34.4587 29.1153C34.4397 29.1205 34.4214 29.127 34.4032 29.1335C34.2378 29.1777 33.3593 29.4118 33.0807 29.4896C32.7716 28.8281 32.3611 28.2364 31.8532 27.7275C30.732 26.6014 29.2221 25.9665 27.6028 25.9399H27.5791C25.9589 25.9665 24.4489 26.6014 23.3267 27.7275C22.7371 28.3191 22.2803 29.0239 21.9594 29.8193C21.3698 29.6195 19.9503 29.2317 19.9503 29.2317C19.5458 29.1215 19.3046 28.5987 19.1392 28.1705C21.1089 26.6713 22.5332 24.3197 22.5332 22.2535V20.2277C22.5332 19.8398 22.233 19.5179 21.8461 19.4904C20.7594 19.4146 20.3509 18.9962 19.9177 18.5542C19.4452 18.0719 18.7985 17.4114 17.4786 17.753C17.134 17.8415 16.8407 17.9193 16.5877 17.9872C15.8504 18.1841 15.4803 18.2825 15.1741 18.2825C14.867 18.2825 14.4969 18.1841 13.7596 17.9872C13.5066 17.9193 13.2143 17.8415 12.8697 17.753C11.5467 17.4124 10.9 18.0729 10.4276 18.5552C9.99446 18.9972 9.58595 19.4146 8.50116 19.4904C8.1143 19.5179 7.81505 19.8398 7.81505 20.2277V22.2535C7.81505 24.3188 9.23846 26.6713 11.2081 28.1705C11.0437 28.5997 10.8025 29.1215 10.397 29.2317L10.1903 29.2887C8.4991 29.7484 6.67416 30.2457 5.34329 31.5399C5.02435 31.4366 3.94745 31.2033 3.84212 31.1777C3.89134 31.0714 3.97895 30.9119 4.13152 30.6865C5.77641 28.2581 6.44766 24.7311 6.44766 18.512C6.44766 15.2322 7.85827 13.0469 9.22645 12.8283C9.24712 12.8254 9.2678 12.8224 9.28748 12.8195C9.48731 12.7919 9.95686 12.7269 10.2157 12.2298C11.1165 10.4963 13.6964 9.52781 16.491 9.87333C19.2915 10.2198 22.6216 12.0104 23.5665 15.996C23.7329 16.7058 23.8362 17.4824 23.9002 18.513C23.9002 20.1736 23.9298 22.1265 24.1404 24.0382C24.1857 24.4437 24.5499 24.7361 24.9555 24.6908C25.361 24.6466 25.6534 24.2814 25.6081 23.8767C25.4044 22.0271 25.3768 20.1156 25.3768 18.4903C25.3768 18.4756 25.3758 18.4598 25.3748 18.4451C25.3059 17.317 25.1917 16.4576 25.0037 15.6574C23.8835 10.9335 19.9658 8.81522 16.6722 8.40769C13.3155 7.99228 10.2669 9.17846 9.00408 11.3686C8.99916 11.3696 8.99424 11.3706 8.98932 11.3715C6.66028 11.7436 4.9712 14.7469 4.9712 18.512C4.9712 24.4093 4.37368 27.696 2.90991 29.8576C2.50238 30.4591 2.12143 31.1609 2.38918 31.8116C2.65299 32.4534 3.33615 32.5883 3.88543 32.6956L3.99076 32.7172C4.12562 32.7438 4.2526 32.7714 4.37368 32.801C3.95335 33.5411 3.64623 34.4546 3.49955 35.5954L2.6274 42.3677C2.58802 42.6749 2.5703 43.1237 2.88334 43.4791C3.2318 43.8768 3.76829 43.8768 3.97107 43.8768H19.3241C19.2788 44.1514 19.2542 44.4488 19.2542 44.7696V46.2068C19.2542 46.8555 19.7818 47.3841 20.4315 47.3841H34.7471C35.3968 47.3841 35.9244 46.8555 35.9244 46.2068V44.7696C35.9244 44.4488 35.9007 44.1514 35.8545 43.8768H51.3275C51.674 43.8768 52.111 43.8315 52.4211 43.4781C52.7351 43.1219 52.7183 42.671 52.679 42.3629C52.679 42.3629 51.7961 35.5323 51.796 35.5316C51.4791 33.0788 49.9649 31.4958 47.8872 30.3233Z" fill="#4197D3"/>
</g>
</g>
<path id="Fill 4" fill-rule="evenodd" clip-rule="evenodd" d="M34.4478 45.908H20.7309V44.7701C20.7309 42.9716 21.7133 42.3466 23.3777 41.8358L26.1201 43.4462C26.2569 43.6166 26.4686 43.7622 26.7895 43.8321C27.0681 43.9679 27.3299 44.0358 27.5908 44.0358C27.8201 44.0358 28.0505 43.9827 28.2916 43.8774C28.4285 43.8183 28.5683 43.7415 28.713 43.648L30.8372 42.4008L31.8029 41.8338C32.3473 41.9982 32.8198 42.1744 33.2076 42.4008C33.7854 42.7365 34.1782 43.1844 34.3505 43.8774C34.4145 44.1382 34.4479 44.4335 34.4479 44.7702V45.908H34.4478ZM19.3768 43.8856C19.2428 44.6304 19.2541 45.4048 19.2541 46.2064C19.2541 46.8551 19.7818 47.3837 20.4315 47.3837H34.747C35.3967 47.3837 35.9243 46.8552 35.9243 46.2064C35.9243 44.8988 35.9492 43.3703 35.1802 42.2143C34.4684 41.1443 33.09 40.6585 31.9141 40.3259C31.9042 40.3229 31.8944 40.32 31.8855 40.3181C31.6916 40.2629 31.5007 40.2127 31.3176 40.1635C31.1985 40.132 31.0813 40.1005 30.9671 40.069C30.8332 40.0326 30.722 39.8514 30.6344 39.6605C32.4338 38.4232 33.7695 36.3197 33.7695 34.4827V32.8182C33.7695 32.1389 33.6987 31.4942 33.5579 30.8889L33.0807 29.4891C32.7716 28.8276 32.3611 28.236 31.8532 27.7271C30.732 26.601 29.222 25.966 27.6027 25.9395H27.5791C25.9588 25.966 24.4489 26.601 23.3267 27.7271C22.7371 28.3187 22.2803 29.0235 21.9594 29.8189L21.552 31.2392C21.4604 31.7413 21.4122 32.2679 21.4122 32.8182V34.4827C21.4122 36.3206 22.747 38.4232 24.5444 39.6605C24.4568 39.8514 24.3465 40.0316 24.2136 40.069C24.0965 40.1006 23.9784 40.132 23.8592 40.1645C23.6762 40.2127 23.4881 40.2629 23.2952 40.317C23.2834 40.321 23.2706 40.3239 23.2588 40.3279C22.1414 40.7001 20.8177 41.0692 20.106 42.0863C19.7014 42.6646 19.4886 43.2647 19.3768 43.8856ZM29.9777 41.1917L27.9528 42.3808C27.944 42.3866 27.9341 42.3915 27.9253 42.3975C27.9242 42.3984 27.9233 42.3984 27.9223 42.3994C27.5965 42.61 27.5827 42.61 27.251 42.3964C27.2421 42.3915 27.2343 42.3866 27.2254 42.3808L25.9811 41.6503L25.2005 41.1925C25.5018 40.9573 25.7036 40.6463 25.8443 40.3607C25.8857 40.3775 25.927 40.3952 25.9693 40.4109C26.0245 40.4316 26.0796 40.4513 26.1337 40.47C26.6446 40.6442 27.1161 40.732 27.5886 40.732H27.5896C28.1113 40.732 28.6331 40.6246 29.2079 40.4109C29.2503 40.3952 29.2916 40.3775 29.3339 40.3607C29.4746 40.6463 29.6765 40.9573 29.9777 41.1917ZM22.8887 33.4515C23.8228 33.2291 24.3091 32.735 24.6507 32.3855C24.7612 32.2725 24.8903 32.1009 25.0515 32.0582C25.2156 32.0145 25.4192 32.1025 25.5744 32.1434C26.0187 32.2606 26.4609 32.3923 26.9106 32.4866C27.2746 32.563 27.6389 32.5872 28.0081 32.5337C28.4385 32.4713 28.8593 32.3416 29.2787 32.23C29.4105 32.1949 29.5423 32.16 29.6741 32.1255C29.7892 32.0955 29.9099 32.0527 30.0299 32.0487C30.2421 32.0418 30.3952 32.2481 30.529 32.3854C30.8717 32.7338 31.3579 33.229 32.2931 33.4514V34.4831C32.2931 36.1635 30.5782 38.3299 28.6943 39.0278C28.3606 39.1519 28.0673 39.2247 27.7808 39.2464C27.3664 39.2798 26.9667 39.2071 26.4834 39.0269C26.4312 39.0072 26.3801 38.9875 26.3279 38.9658C24.5088 38.2109 22.8886 36.1181 22.8886 34.4831V33.4515H22.8887ZM23.1899 30.764C23.9095 28.5207 25.8024 27.4507 27.591 27.4162C29.1433 27.4457 30.7752 28.256 31.6485 29.9351C31.862 30.3466 32.0314 30.8093 32.1416 31.326C32.18 31.5023 32.2115 31.6853 32.2351 31.8743C32.0255 31.77 31.869 31.6352 31.7183 31.4855C31.6741 31.4422 31.6298 31.3979 31.5845 31.3516C31.2675 31.0288 30.8619 30.6144 30.1621 30.5779C29.8548 30.5593 29.5501 30.6229 29.2549 30.7016C28.9591 30.7803 28.6654 30.8664 28.3692 30.9436C28.0544 31.0257 27.7315 31.1191 27.4034 31.0753C26.9344 31.0127 26.4727 30.8532 26.0164 30.733C25.5262 30.6036 25.0345 30.4972 24.5404 30.6706C24.1619 30.8033 23.8707 31.0713 23.5953 31.3527C23.3984 31.5535 23.2163 31.7395 22.9466 31.8743C22.9763 31.636 23.0339 31.2281 23.1899 30.764Z" fill="#EB9AA7"/>
</g>
</g>
</svg>
