<svg width="50" height="50" viewBox="0 0 50 50" fill="none" xmlns="http://www.w3.org/2000/svg">
<g id="Group 735">
<g id="Group 962">
<path id="Vector 35" d="M9.5459 33.4494C11.1117 31.7637 15.8402 29.4956 22.2285 33.9091C25.9863 36.2078 26.9258 35.2883 33.0322 32.5299C37.3219 30.5922 39.1642 32.4883 38.669 34.2823M15.1826 39.426C15.8089 39.426 18.2535 39.8906 23.168 41.2649C26.4561 42.1844 31.1533 38.5065 36.7901 36.2078C37.8301 35.7837 38.4592 35.0422 38.669 34.2823M38.669 34.2823C40.5479 33.2385 44.5473 31.4239 45.2451 31.1507C47.5938 30.2313 50.4722 32.4439 47.5938 34.2823C31.6231 44.4829 31.1533 47.2415 23.6377 45.4026C15.3705 43.5636 12.3643 44.0234 11.8945 44.4831" stroke="#4197D3" stroke-width="2.025" stroke-linecap="round" stroke-linejoin="round"/>
<g id="Rectangle 20">
<mask id="path-2-inside-1_1777_672" fill="white">
<rect width="9.34727" height="18.7451" rx="1.86923" transform="matrix(0.979429 -0.20179 0.200656 0.979662 0.200195 30.9355)"/>
</mask>
<rect width="9.34727" height="18.7451" rx="1.86923" transform="matrix(0.979429 -0.20179 0.200656 0.979662 0.200195 30.9355)" stroke="#4197D3" stroke-width="4.05" mask="url(#path-2-inside-1_1777_672)"/>
</g>
</g>
<g id="Group 921">
<g id="Fill 3">
<path fill-rule="evenodd" clip-rule="evenodd" d="M16.2454 6.19049C16.2116 6.55305 16.2131 6.94947 16.2131 7.33319C16.0779 13.8508 15.9245 21.2289 25.5166 24.5992C35.0679 21.2233 34.9919 13.9072 34.9243 7.45028C34.8919 6.93959 34.8905 6.55023 34.8905 6.19614V6.14253L34.8384 6.14112C31.1663 6.01274 28.1458 4.90954 25.6025 2.76946L25.5673 2.73983L25.5335 2.76946C22.9958 4.90531 20.0597 5.97747 16.2975 6.14112L16.2497 6.14394L16.2454 6.19049ZM25.4997 26.3502C25.4139 26.3502 25.3266 26.3234 25.2351 26.2938C14.0878 22.5525 14.2721 13.7199 14.4058 7.2714C14.4382 6.5872 14.4382 5.93544 14.4382 5.28368C14.4382 4.81108 14.8365 4.42736 15.3249 4.42736C19.3264 4.42736 22.3709 3.3157 24.9001 0.930145C25.0676 0.782018 25.2914 0.700195 25.518 0.700195C25.746 0.700195 25.967 0.782018 26.1359 0.930145C28.6666 3.31711 31.7068 4.42736 35.7097 4.42736C36.1995 4.42736 36.5978 4.81108 36.5978 5.28368C36.5978 5.58557 36.6035 5.90299 36.6133 6.22887C36.6217 6.56886 36.6302 6.91872 36.6302 7.26858C36.7301 13.7255 36.8652 22.5694 25.784 26.2881C25.6813 26.3206 25.5898 26.3502 25.4997 26.3502Z" fill="#4197D3"/>
<path d="M16.2454 6.19049L16.4135 6.20615L16.4135 6.20574L16.2454 6.19049ZM16.2131 7.33319L16.3818 7.33669V7.33319H16.2131ZM25.5166 24.5992L25.4607 24.7584L25.5168 24.7781L25.5728 24.7583L25.5166 24.5992ZM34.9243 7.45028L35.0933 7.44851L35.0927 7.4396L34.9243 7.45028ZM34.8905 6.14253H35.0593V5.97829L34.8951 5.97384L34.8905 6.14253ZM34.8384 6.14112L34.8325 6.30977L34.8339 6.3098L34.8384 6.14112ZM25.6025 2.76946L25.4938 2.89855L25.4938 2.89858L25.6025 2.76946ZM25.5673 2.73983L25.676 2.61074L25.565 2.51735L25.456 2.61296L25.5673 2.73983ZM25.5335 2.76946L25.6422 2.89859L25.6448 2.89633L25.5335 2.76946ZM16.2975 6.14112L16.2902 5.97251L16.2876 5.97266L16.2975 6.14112ZM16.2497 6.14394L16.2397 5.97548L16.0947 5.98403L16.0816 6.12869L16.2497 6.14394ZM25.2351 26.2938L25.1814 26.4538L25.1831 26.4543L25.2351 26.2938ZM14.4058 7.2714L14.2372 7.26343L14.2371 7.2679L14.4058 7.2714ZM24.9001 0.930145L24.7883 0.803673L24.7843 0.807384L24.9001 0.930145ZM26.1359 0.930145L26.2518 0.807306L26.2472 0.803275L26.1359 0.930145ZM36.6133 6.22887L36.782 6.22468L36.782 6.22377L36.6133 6.22887ZM36.6302 7.26858H36.4614L36.4615 7.27119L36.6302 7.26858ZM25.784 26.2881L25.8349 26.4491L25.8377 26.4481L25.784 26.2881ZM16.0774 6.17484C16.0427 6.54683 16.0443 6.95185 16.0443 7.33319H16.3818C16.3818 6.94708 16.3805 6.55927 16.4135 6.20615L16.0774 6.17484ZM16.0443 7.32969C15.9769 10.5818 15.902 14.0892 17.0589 17.2052C18.2215 20.3364 20.6211 23.058 25.4607 24.7584L25.5725 24.44C20.82 22.7701 18.5003 20.1175 17.3753 17.0877C16.2447 14.0426 16.3141 10.6022 16.3818 7.33669L16.0443 7.32969ZM25.5728 24.7583C30.3914 23.0552 32.7997 20.3483 33.9852 17.2403C35.165 14.147 35.1267 10.6704 35.093 7.44851L34.7556 7.45204C34.7894 10.6871 34.8229 14.097 33.6698 17.12C32.5224 20.1282 30.1931 22.7673 25.4604 24.4401L25.5728 24.7583ZM35.0927 7.4396C35.0607 6.9344 35.0593 6.54935 35.0593 6.19614H34.7218C34.7218 6.55111 34.7232 6.94479 34.7559 7.46096L35.0927 7.4396ZM35.0593 6.19614V6.14253H34.7218V6.19614H35.0593ZM34.8951 5.97384L34.843 5.97243L34.8339 6.3098L34.8859 6.31121L34.8951 5.97384ZM34.8443 5.97247C31.2057 5.84526 28.2225 4.75357 25.7111 2.64034L25.4938 2.89858C28.0691 5.06552 31.1269 6.18021 34.8325 6.30976L34.8443 5.97247ZM25.7111 2.64037L25.676 2.61074L25.4586 2.86892L25.4938 2.89855L25.7111 2.64037ZM25.456 2.61296L25.4222 2.64259L25.6448 2.89633L25.6785 2.8667L25.456 2.61296ZM25.4248 2.64035C22.9194 4.74904 20.0205 5.81027 16.2902 5.97253L16.3048 6.30971C20.099 6.14467 23.0722 5.06159 25.6422 2.89857L25.4248 2.64035ZM16.2876 5.97266L16.2397 5.97548L16.2596 6.3124L16.3074 6.30957L16.2876 5.97266ZM16.0816 6.12869L16.0774 6.17525L16.4135 6.20574L16.4177 6.15918L16.0816 6.12869ZM25.4997 26.1814C25.4446 26.1814 25.3821 26.164 25.2871 26.1332L25.1831 26.4543C25.2711 26.4828 25.3831 26.5189 25.4997 26.5189V26.1814ZM25.2888 26.1338C19.7604 24.2784 17.0594 21.1699 15.7477 17.7375C14.4308 14.2914 14.5076 10.5045 14.5746 7.2749L14.2371 7.2679C14.1704 10.4868 14.0882 14.3404 15.4324 17.858C16.782 21.3894 19.5624 24.5679 25.1814 26.4537L25.2888 26.1338ZM14.5744 7.27938C14.607 6.59057 14.607 5.93492 14.607 5.28368H14.2695C14.2695 5.93595 14.2694 6.58382 14.2373 7.26343L14.5744 7.27938ZM14.607 5.28368C14.607 4.9099 14.924 4.59611 15.3249 4.59611V4.25861C14.7491 4.25861 14.2695 4.71226 14.2695 5.28368H14.607ZM15.3249 4.59611C19.3625 4.59611 22.4506 3.47247 25.0159 1.05291L24.7843 0.807384C22.2911 3.15893 19.2904 4.25861 15.3249 4.25861V4.59611ZM25.0119 1.05655C25.1473 0.936863 25.3308 0.868945 25.518 0.868945V0.531445C25.252 0.531445 24.988 0.627173 24.7883 0.803738L25.0119 1.05655ZM25.518 0.868945C25.7061 0.868945 25.8873 0.936537 26.0246 1.05702L26.2472 0.803275C26.0468 0.627499 25.786 0.531445 25.518 0.531445V0.868945ZM26.0201 1.0529C28.5869 3.47388 31.6707 4.59611 35.7097 4.59611V4.25861C31.7428 4.25861 28.7463 3.16034 26.2517 0.807386L26.0201 1.0529ZM35.7097 4.59611C36.1122 4.59611 36.4291 4.91007 36.4291 5.28368H36.7666C36.7666 4.71209 36.2868 4.25861 35.7097 4.25861V4.59611ZM36.4291 5.28368C36.4291 5.58762 36.4347 5.90677 36.4446 6.23397L36.782 6.22377C36.7722 5.89921 36.7666 5.58353 36.7666 5.28368H36.4291ZM36.4446 6.23306C36.4531 6.57326 36.4614 6.92112 36.4614 7.26858H36.7989C36.7989 6.91632 36.7904 6.56445 36.782 6.22468L36.4446 6.23306ZM36.4615 7.27119C36.5115 10.5049 36.5678 14.2971 35.2425 17.7446C33.9225 21.1786 31.2253 24.2841 25.7303 26.1281L25.8377 26.4481C31.4239 24.5735 34.1998 21.3977 35.5576 17.8657C36.91 14.3474 36.8488 10.4892 36.7989 7.26597L36.4615 7.27119ZM25.7332 26.1272C25.6229 26.162 25.5584 26.1814 25.4997 26.1814V26.5189C25.6212 26.5189 25.7396 26.4791 25.8349 26.449L25.7332 26.1272Z" fill="#4197D3"/>
</g>
<path id="Fill 5" fill-rule="evenodd" clip-rule="evenodd" d="M16.2719 3.33643C15.8368 3.33643 15.4824 2.98323 15.4824 2.5495C15.4824 2.11577 15.8368 1.76256 16.2719 1.76256C17.8848 1.76256 19.1732 1.44892 20.1029 0.831522C20.2773 0.715672 20.4899 0.6747 20.6968 0.715672C20.9037 0.75523 21.0823 0.873906 21.1985 1.04909C21.3148 1.22287 21.3587 1.43338 21.3162 1.63824C21.2751 1.84451 21.1546 2.02393 20.9789 2.13978C19.7855 2.93378 18.2009 3.33643 16.2719 3.33643Z" fill="#EB9AA7"/>
<path id="Fill 1" fill-rule="evenodd" clip-rule="evenodd" d="M28.8185 9.79785C29.1193 9.79785 29.3651 10.041 29.3651 10.3405C29.3651 10.64 29.1193 10.8831 28.8185 10.8831H27.3883L27.4133 10.9144C27.6317 11.2152 27.7877 11.5598 27.8663 11.9283H28.8185C29.0993 11.9283 29.3302 12.1376 29.3626 12.407L29.3651 12.4697C29.3651 12.7704 29.1193 13.0123 28.8185 13.0123L27.8675 13.011L27.8488 13.1013C27.5693 14.2517 26.5497 15.1076 25.3329 15.1628L25.2056 15.1653H25.1357L27.7565 17.619C27.9549 17.812 27.9799 18.1153 27.8176 18.3346L27.774 18.3885C27.5668 18.604 27.2223 18.6153 27.004 18.4098L23.3811 15.0174C23.2788 14.9159 23.2164 14.7768 23.2164 14.6352C23.2114 14.3332 23.4547 14.0863 23.763 14.0813H25.2081C25.8908 14.08 26.4848 13.6577 26.7207 13.0536L26.7356 13.011L23.7605 13.0123C23.4809 13.0123 23.2488 12.803 23.2176 12.5336L23.2139 12.4697C23.2139 12.1714 23.4597 11.9283 23.7605 11.9283H26.7331L26.7207 11.8969C26.4973 11.3343 25.9494 10.9257 25.3105 10.8856L25.2081 10.8831H23.7605C23.4597 10.8831 23.2139 10.64 23.2139 10.3405C23.2139 10.041 23.4597 9.79785 23.7605 9.79785H28.8185Z" fill="#EB9AA7"/>
</g>
</g>
</svg>
