<?xml version="1.0" standalone="no"?>
<!DOCTYPE svg PUBLIC "-//W3C//DTD SVG 20010904//EN"
 "http://www.w3.org/TR/2001/REC-SVG-20010904/DTD/svg10.dtd">
<svg version="1.0" xmlns="http://www.w3.org/2000/svg"
 width="106.000000pt" height="106.000000pt" viewBox="0 0 106.000000 106.000000"
 preserveAspectRatio="xMidYMid meet">
<metadata>
Created by potrace 1.14, written by Peter Selinger 2001-2017
</metadata>
<g transform="translate(0.000000,106.000000) scale(0.100000,-0.100000)"
fill="#000000" stroke="none">
<path d="M48 981 c-2 -14 -2 -46 0 -71 l4 -45 56 1 57 2 3 71 3 71 -60 -1
c-57 -1 -60 -2 -63 -28z"/>
<path d="M271 996 c-6 -7 -12 -85 -13 -182 l-3 -169 -97 0 c-53 0 -99 -3 -103
-6 -7 -8 -8 -587 0 -598 2 -5 135 -9 295 -9 261 0 291 1 299 16 5 10 9 58 9
108 -1 50 2 96 5 100 3 5 77 9 164 8 89 -1 163 3 171 9 18 14 18 710 -1 725
-19 16 -713 14 -726 -2z"/>
<path d="M887 182 c-14 -3 -17 -16 -17 -72 0 -77 0 -76 80 -75 l55 1 3 72 c2
40 -1 72 -5 73 -35 3 -102 3 -116 1z"/>
</g>
</svg>
